<svg width="45" height="36" viewBox="0 0 45 36" fill="none" xmlns="http://www.w3.org/2000/svg">
<path fill-rule="evenodd" clip-rule="evenodd" d="M6.5 0H8.5H10.5H12.5H14.5H16.5H18.5V2H16.5H14.5H12.5H10.5H8.5H6.5V0ZM4.5 4V2H6.5V4H4.5ZM2.5 8V6V4H4.5V6V8H2.5ZM2.5 34H0.5V32V30V28V26V24V22V20V18V16V14V12V10V8H2.5V10V12V14V16V18V20V22V24V26V28V30V32V34ZM42.5 34H40.5H38.5H36.5H34.5H32.5H30.5H28.5H26.5H24.5H22.5H20.5H18.5H16.5H14.5H12.5H10.5H8.5H6.5H4.5H2.5V36H4.5H6.5H8.5H10.5H12.5H14.5H16.5H18.5H20.5H22.5H24.5H26.5H28.5H30.5H32.5H34.5H36.5H38.5H40.5H42.5V34ZM42.5 32V34H44.5V32V30V28V26V24V22V20V18V16V14V12V10V8H42.5V6H40.5H38.5H36.5H34.5H32.5H30.5H28.5H26.5H24.5H22.5V4H20.5V2H18.5V4H20.5V6H22.5V8H24.5H26.5H28.5H30.5H32.5H34.5H36.5H38.5H40.5H42.5V10V12V14V16V18V20V22V24V26V28V30V32Z" fill="black"/>
<path d="M18.5 2H6.5V4H4.5V6V8H2.5V12V34H42.5V12V8H22.5V6H20.5V4H18.5V2Z" fill="#2541D6"/>
<path fill-rule="evenodd" clip-rule="evenodd" d="M22.2925 29.7433C22.4799 29.8595 22.7813 30 22.8749 30L22.875 29.2076C22.8102 29.1761 22.7456 29.141 22.6983 29.1118C21.5364 28.3756 20.2747 27.2631 19.2727 26.0817L19.2718 26.0807C17.1717 23.6137 15.9793 20.684 15.7738 17.4864C15.7428 17.0044 15.7614 16.1866 15.7867 15.445C19.149 15.2307 22.0661 13.6417 22.8747 12.9354V12.0002L22.6835 12.1443C21.6448 12.9216 20.6795 13.4466 19.4901 13.8833C18.2599 14.3361 16.8383 14.6286 15.4941 14.7168L15.0543 14.7448C15.0217 15.5849 14.9738 16.8509 15.0176 17.5338C15.2335 20.8917 16.488 23.9731 18.6917 26.5617C19.7385 27.7959 21.0583 28.9619 22.2925 29.7433ZM22.6916 14.116C22.7609 14.0599 22.875 13.9846 22.875 13.9846V28.0682C22.1428 27.619 20.7726 26.5719 19.5311 25.1158L19.8993 25.0994C20.8606 25.0633 21.4797 24.8309 22.0052 24.31C22.4899 23.8331 22.6223 23.3439 22.6223 22.6466C22.6223 21.4726 22.0703 20.7317 20.551 20.1386C19.5979 19.77 19.3005 19.4334 19.5286 18.9886C19.716 18.6159 20.0581 18.5478 21.7078 18.5438L22.4899 18.5398L22.5021 17.7664C22.5103 17.3457 22.5021 16.981 22.4858 16.961C22.441 16.9009 19.9441 16.961 19.6386 17.0291C18.938 17.1894 18.3636 17.554 18.0174 18.0589C17.7364 18.4717 17.6345 18.8043 17.6305 19.3212C17.6264 20.4071 18.3188 21.1845 19.7649 21.7174C20.5592 22.0099 20.8646 22.2864 20.8646 22.7071C20.8646 23.2241 20.4247 23.5005 19.6671 23.4565C19.1824 23.4324 18.771 23.2962 18.2618 23.0037L17.9521 22.8239C17.8793 22.6867 17.8093 22.5475 17.7426 22.4066C17.2578 21.3768 16.8994 19.9943 16.7609 18.648C16.712 18.1671 16.7242 16.2037 16.7731 16.1516C16.7731 16.1516 17.0175 16.1115 17.2823 16.0915C18.7487 15.9833 20.3087 15.5345 21.5307 14.8733C21.877 14.681 22.4635 14.3003 22.6916 14.116Z" fill="white"/>
<path fill-rule="evenodd" clip-rule="evenodd" d="M30.2558 14.717L30.6956 14.7451C30.7283 15.5852 30.7762 16.8511 30.7324 17.534C30.5165 20.8919 29.262 23.9734 27.0583 26.5619C26.0115 27.7961 24.6917 28.9622 23.4575 29.7435C23.2702 29.8597 22.9688 30 22.875 30L22.8751 29.2076C22.9398 29.1761 23.0042 29.1412 23.0515 29.112C24.2133 28.3759 25.475 27.2633 26.4771 26.082L26.4779 26.0809C28.5781 23.614 29.7704 20.6842 29.976 17.4866C30.0069 17.0046 29.9884 16.1868 29.9631 15.4452C26.2353 15.2418 23.7862 13.5606 22.9899 13.0141C22.9467 12.9845 22.9084 12.9582 22.875 12.9356V12L23.0665 12.1445C24.1052 12.9219 25.0705 13.4468 26.2599 13.8836C27.4901 14.3364 28.9117 14.6289 30.2558 14.717ZM28.0074 22.4066C28.4922 21.3768 28.8506 19.9943 28.9891 18.648C29.038 18.1671 29.0258 16.2037 28.9769 16.1516C28.9769 16.1516 28.7325 16.1115 28.4677 16.0915C27.0013 15.9833 25.4413 15.5345 24.2193 14.8733C23.8731 14.681 23.2865 14.3003 23.0584 14.116C22.9891 14.0599 22.875 13.9846 22.875 13.9846V28.0682C24.0055 27.3746 26.6571 25.2556 28.0074 22.4066ZM23.1276 18.5337V16.9135H25.6537C26.5378 16.9135 28.3061 17.4369 28.3061 19.5308C28.3061 22.1481 25.1485 22.2104 24.7696 22.2104V24.89H23.1276V20.5279H25.2748C25.6747 20.5279 26.4747 20.3284 26.4747 19.5308C26.4747 18.7331 25.6747 18.5337 25.2748 18.5337H23.1276Z" fill="white" fill-opacity="0.5"/>
<rect x="4.5" y="4" width="2" height="4" fill="#7184ED"/>
<path fill-rule="evenodd" clip-rule="evenodd" d="M6.5 2H18.5V4H6.5V2ZM20.5 6H18.5V4H20.5V6ZM22.5 8H20.5V6H22.5V8ZM22.5 8H42.5V10H22.5V8ZM4.5 8H2.5V34H4.5V8Z" fill="#7184ED"/>
<path fill-rule="evenodd" clip-rule="evenodd" d="M42.5 8H40.5V32H2.5V34H40.5H42.5V32V8Z" fill="#1128A4"/>
</svg>
