<svg xmlns="http://www.w3.org/2000/svg" width="14" height="17" viewBox="0 0 14 17" fill="currentColor">
    <path d="M1.57068 8.20264L1.57933 11.3757L4.27549 12.9623V14.82L0.00145017 12.3132V7.27476L1.57068 8.20264ZM1.57068 5.02957V6.87861L0.000488281 5.94976V4.10072L1.57068 3.17188L3.14857 4.10072L1.57068 5.02957ZM5.40145 4.10072L6.97164 3.17188L8.54953 4.10072L6.97164 5.02957L5.40145 4.10072Z" fill="black"/>
    <path d="M2.70557 10.718V8.86034L4.27576 9.78918V11.6382L2.70557 10.718ZM5.40172 13.6276L6.97191 14.5565L8.5498 13.6276V15.4767L6.97191 16.4055L5.40172 15.4767V13.6276ZM10.8017 4.10072L12.3719 3.17188L13.9498 4.10072V5.94976L12.3719 6.87861V5.02957L10.8017 4.10072ZM12.3719 11.3757L12.3806 8.20264L13.9508 7.2738V12.3123L9.67672 14.819V12.9613L12.3719 11.3757Z" />
    <path d="M11.246 10.718L9.67578 11.6382V9.7892L11.246 8.86035V10.718Z" fill="black"/>
    <path d="M11.2459 5.6875L11.2546 7.54519L8.55076 9.13173V12.3125L6.98057 13.2327L5.41037 12.3125V9.13173L2.70653 7.54519V5.6875L4.28345 4.75865L6.97095 6.35288L9.6748 4.75865L11.2527 5.6875H11.2459ZM2.70557 2.51538L6.97191 0L11.2459 2.51538L9.67576 3.44423L6.97191 1.85L4.27576 3.44423L2.70557 2.51538Z" />
</svg>
