<svg xmlns="http://www.w3.org/2000/svg" width="12" height="14" viewBox="0 0 12 14" fill="currentColor">
    <path d="M1.65654 7.16231L1.66347 9.70077L3.82039 10.97V12.4562L0.40116 10.4508V6.42L1.65654 7.16231ZM1.65654 4.62385V6.10308L0.400391 5.36V3.88077L1.65654 3.1377L2.91885 3.88077L1.65654 4.62385ZM4.72116 3.88077L5.97731 3.1377L7.23962 3.88077L5.97731 4.62385L4.72116 3.88077Z"/>
    <path d="M2.56445 9.17364V7.68749L3.82061 8.43056V9.9098L2.56445 9.17364ZM4.72138 11.5013L5.97753 12.2444L7.23984 11.5013V12.9806L5.97753 13.7236L4.72138 12.9806V11.5013ZM9.04138 3.8798L10.2975 3.13672L11.5598 3.8798V5.35903L10.2975 6.1021V4.62287L9.04138 3.8798ZM10.2975 9.6998L10.3045 7.16133L11.5606 6.41826V10.449L8.14138 12.4544V10.9683L10.2975 9.6998Z"/>
    <path d="M9.39678 9.17365L8.14062 9.90981V8.43058L9.39678 7.6875V9.17365Z"/>
    <path d="M9.39676 5.14961L9.40368 6.63576L7.24061 7.90499V10.4496L5.98445 11.1858L4.7283 10.4496V7.90499L2.56522 6.63576V5.14961L3.82676 4.40653L5.97676 5.68192L8.13984 4.40653L9.40215 5.14961H9.39676ZM2.56445 2.61192L5.97753 0.599609L9.39676 2.61192L8.14061 3.35499L5.97753 2.07961L3.82061 3.35499L2.56445 2.61192Z"/>
</svg>
