<svg xmlns="http://www.w3.org/2000/svg" width="16" height="16" viewBox="0 0 16 16" fill="currentColor">
    <path d="M2.80078 11.6364C2.80078 11.7328 2.83991 11.8253 2.90957 11.8935C2.97923 11.9617 3.0737 12 3.17221 12H12.8294C12.9279 12 13.0223 11.9617 13.092 11.8935C13.1616 11.8253 13.2008 11.7328 13.2008 11.6364V7.22727H2.80078V11.6364ZM4.33292 8.5C4.33292 8.45178 4.35249 8.40553 4.38732 8.37144C4.42215 8.33734 4.46938 8.31818 4.51864 8.31818H6.65435C6.70361 8.31818 6.75084 8.33734 6.78567 8.37144C6.8205 8.40553 6.84007 8.45178 6.84007 8.5V9.95455C6.84007 10.0028 6.8205 10.049 6.78567 10.0831C6.75084 10.1172 6.70361 10.1364 6.65435 10.1364H4.51864C4.46938 10.1364 4.42215 10.1172 4.38732 10.0831C4.35249 10.049 4.33292 10.0028 4.33292 9.95455V8.5ZM12.8294 4H3.17221C3.0737 4 2.97923 4.03831 2.90957 4.10651C2.83991 4.1747 2.80078 4.26719 2.80078 4.36364V5.86364H13.2008V4.36364C13.2008 4.26719 13.1616 4.1747 13.092 4.10651C13.0223 4.03831 12.9279 4 12.8294 4Z"/>
</svg>
