<svg xmlns="http://www.w3.org/2000/svg" width="20" height="20" viewBox="0 0 20 20" fill="currentColor">
    <path d="M3.50098 14.5455C3.50098 14.666 3.54989 14.7816 3.63696 14.8669C3.72403 14.9521 3.84213 15 3.96526 15H16.0367C16.1598 15 16.2779 14.9521 16.365 14.8669C16.4521 14.7816 16.501 14.666 16.501 14.5455V9.03409H3.50098V14.5455ZM5.41616 10.625C5.41616 10.5647 5.44061 10.5069 5.48415 10.4643C5.52768 10.4217 5.58673 10.3977 5.6483 10.3977H8.31794C8.37951 10.3977 8.43856 10.4217 8.48209 10.4643C8.52563 10.5069 8.55008 10.5647 8.55008 10.625V12.4432C8.55008 12.5035 8.52563 12.5613 8.48209 12.6039C8.43856 12.6465 8.37951 12.6705 8.31794 12.6705H5.6483C5.58673 12.6705 5.52768 12.6465 5.48415 12.6039C5.44061 12.5613 5.41616 12.5035 5.41616 12.4432V10.625ZM16.0367 5H3.96526C3.84213 5 3.72403 5.04789 3.63696 5.13313C3.54989 5.21838 3.50098 5.33399 3.50098 5.45455V7.32955H16.501V5.45455C16.501 5.33399 16.4521 5.21838 16.365 5.13313C16.2779 5.04789 16.1598 5 16.0367 5Z"/>
</svg>
