<svg xmlns="http://www.w3.org/2000/svg" width="22" height="16" viewBox="0 0 22 16" fill="none">
    <mask id="mask0_633_3243" style="mask-type:luminance" maskUnits="userSpaceOnUse" x="0" y="0" width="22" height="16">
        <path d="M22 0H0V16H22V0Z" fill="white"/>
    </mask>
    <g mask="url(#mask0_633_3243)">
        <path d="M0 0H22V16H0V0Z" fill="#EE1C25"/>
        <path d="M2.64038 5.92059L4.12536 1.60059L5.61034 5.92059L1.65039 3.28059H6.60033L2.64038 5.92059Z" fill="#FFFF00"/>
        <path d="M9.0812 1.68286L7.55298 2.01126L8.57236 0.859375L8.47244 2.40966L7.6243 1.03719L9.0812 1.68286Z" fill="#FFFF00"/>
        <path d="M10.6239 3.5786L9.08398 3.30655L10.4842 2.6282L9.77209 4.01955L9.53931 2.43555L10.6239 3.5786Z" fill="#FFFF00"/>
        <path d="M10.3971 6.23826L9.10547 5.3808L10.6693 5.31526L9.43384 6.30395L9.88753 4.76562L10.3971 6.23826Z" fill="#FFFF00"/>
        <path d="M8.45565 7.97499L7.60581 6.70031L9.07442 7.22557L7.54102 7.67482L8.57218 6.42578L8.45565 7.97499Z" fill="#FFFF00"/>
    </g>
</svg>
