<svg width="44" height="36" viewBox="0 0 44 36" fill="none" xmlns="http://www.w3.org/2000/svg">
<path fill-rule="evenodd" clip-rule="evenodd" d="M6 0H8H10H12H14H16H18V2H16H14H12H10H8H6V0ZM4 4V2H6V4H4ZM2 8V6V4H4V6V8H2ZM2 34H0V32V30V28V26V24V22V20V18V16V14V12V10V8H2V10V12V14V16V18V20V22V24V26V28V30V32V34ZM42 34H40H38H36H34H32H30H28H26H24H22H20H18H16H14H12H10H8H6H4H2V36H4H6H8H10H12H14H16H18H20H22H24H26H28H30H32H34H36H38H40H42V34ZM42 32V34H44V32V30V28V26V24V22V20V18V16V14V12V10V8H42V6H40H38H36H34H32H30H28H26H24H22V4H20V2H18V4H20V6H22V8H24H26H28H30H32H34H36H38H40H42V10V12V14V16V18V20V22V24V26V28V30V32Z" fill="black"/>
<path d="M18 2H6V4H4V6V8H2V12V34H42V12V8H22V6H20V4H18V2Z" fill="url(#paint0_linear_1281_11049)"/>
<path fill-rule="evenodd" clip-rule="evenodd" d="M21.131 14.9985C20.1827 15.1487 19.283 15.5154 18.5038 16.0693L18.5038 16.0693L18.5038 16.0694L20.0163 16.7387L20.0171 16.7391C20.1967 16.6532 20.3822 16.5783 20.5725 16.5148C21.3807 16.2454 22.2471 16.1933 23.0825 16.3639C23.9179 16.5346 24.6921 16.9217 25.3253 17.4856C25.5327 17.6703 25.7226 17.8717 25.8931 18.0873L27.157 17.5161L27.1595 17.515C26.9375 17.2023 26.6855 16.91 26.4063 16.6422C25.7175 15.9819 24.8819 15.4894 23.966 15.204C23.0502 14.9186 22.0793 14.8483 21.131 14.9985ZM26.6849 19.5709L26.6853 19.5708L27.9328 19.0069L27.9329 19.0074L29.7102 18.2041L29.71 18.2036L29.7102 18.2036L29.7096 18.2027C29.7087 18.2003 29.7078 18.1979 29.7069 18.1956L29.705 18.1905C29.7036 18.1869 29.7022 18.1834 29.7007 18.18L29.2324 17.1721C29.1445 17.0126 29.0518 16.8563 28.9542 16.703C28.2311 15.5832 27.2368 14.6585 26.061 14.0122C24.8852 13.3659 23.5649 13.0183 22.2189 13.0007C20.873 12.9831 19.5437 13.2961 18.351 13.9115C17.6835 14.2559 17.0705 14.6889 16.5281 15.1964L16.5258 15.1954C16.0968 15.5963 15.7136 16.0425 15.3832 16.5258L17.196 17.3274L18.4838 17.8964L18.4845 17.8967C18.4845 17.8967 18.4844 17.8968 18.4843 17.8969L18.4638 17.9199C17.8471 18.6312 17.4581 19.5068 17.3459 20.4361C17.2338 21.3654 17.4034 22.3067 17.8335 23.1409C17.8347 23.1442 17.8363 23.1473 17.8382 23.1503L16.7171 23.9337L15.1201 25.0497L15.121 25.0512L15.1201 25.0518C15.9397 26.4295 17.159 27.5334 18.6207 28.2211C20.0824 28.9089 21.7195 29.1489 23.3208 28.9103C24.9221 28.6717 26.4143 27.9654 27.6048 26.8825C28.7851 25.8088 29.6153 24.4137 29.9904 22.8744C29.9937 22.8612 29.9968 22.8479 30 22.8347L29.9974 22.8343L28.0759 22.5105L28.0758 22.5109L26.7252 22.2836C26.7253 22.2835 26.7253 22.2834 26.7253 22.2833L26.5161 22.2484L24.8135 21.9618C24.6367 22.4467 24.3289 22.8747 23.9234 23.1996L23.9231 23.2016C23.7959 23.3035 23.6593 23.3951 23.5147 23.475C22.9113 23.8083 22.2065 23.9164 21.529 23.7794C20.8515 23.6424 20.2467 23.2695 19.825 22.7288C19.4033 22.1882 19.193 21.516 19.2324 20.835C19.2718 20.154 19.5584 19.5097 20.0397 19.02C20.521 18.5302 21.165 18.2276 21.8539 18.1676C22.5427 18.1075 23.2305 18.2939 23.7915 18.6928C23.9952 18.8377 24.1772 19.007 24.3341 19.1957L24.3379 19.2037C24.612 19.5346 24.8071 19.9221 24.9085 20.3374C24.9087 20.3383 24.9089 20.3391 24.9091 20.34C24.9113 20.3466 24.9141 20.3532 24.9141 20.3598L26.6296 19.596L26.6853 19.5719C26.6852 19.5716 26.6851 19.5713 26.6849 19.5709ZM25.936 23.8495C25.7186 24.1332 25.4683 24.3933 25.1889 24.6241C24.45 25.2344 23.5418 25.6109 22.5828 25.7047C21.6237 25.7985 20.6582 25.6052 19.8122 25.1499C19.4694 24.9655 19.1526 24.7414 18.8678 24.4839L17.7351 25.2751L17.7341 25.2758L17.7351 25.2767C18.5021 26.0388 19.4601 26.5869 20.5116 26.8651C21.5632 27.1434 22.6707 27.1419 23.7214 26.8608C24.7722 26.5797 25.7287 26.0291 26.4935 25.2649C26.8466 24.9122 27.153 24.5198 27.4073 24.0973L25.936 23.8495ZM16.0613 19.8341C16.1293 19.4894 16.2272 19.1512 16.3539 18.823L14.5738 18.0362C13.8732 19.7771 13.8122 21.7048 14.4014 23.4854L16.0902 22.3058C15.9086 21.4926 15.8988 20.6513 16.0613 19.8341Z" fill="white"/>
<path fill-rule="evenodd" clip-rule="evenodd" d="M18 2H6V4H4V8H2V34H4V8H6V4H18V6H20V8H22V10H42V8H22V6H20V4H18V2Z" fill="#53BBA1"/>
<path fill-rule="evenodd" clip-rule="evenodd" d="M42 8H40V32H2V34H40H42V32V8Z" fill="#085E6D"/>
<defs>
<linearGradient id="paint0_linear_1281_11049" x1="2.63946" y1="2.79816" x2="48.5248" y2="59.093" gradientUnits="userSpaceOnUse">
<stop stop-color="#3B916F"/>
<stop offset="1" stop-color="#096AA5"/>
</linearGradient>
</defs>
</svg>
