<svg xmlns="http://www.w3.org/2000/svg" width="20" height="20" viewBox="0 0 20 20" fill="currentColor">
    <path fill-rule="evenodd" clip-rule="evenodd" d="M10 20C15.523 20 20 15.523 20 10C20 4.477 15.523 0 10 0C4.477 0 0 4.477 0 10C0 15.523 4.477 20 10 20ZM13.3425 10.1062C12.9041 9.74336 12.2694 9.49115 11.4384 9.34956L8.93151 8.92478C8.30137 8.81858 7.9863 8.54425 7.9863 8.10177V7.74336C7.9863 7.47788 8.10046 7.26549 8.32877 7.10619C8.56621 6.9469 8.87671 6.86726 9.26027 6.86726H10.8082C11.1553 6.86726 11.4338 6.9823 11.6438 7.21239C11.8539 7.43363 11.9589 7.73009 11.9589 8.10177H13.8219C13.8219 7.26991 13.5616 6.59734 13.0411 6.08407C12.5297 5.5708 11.8447 5.29204 10.9863 5.24779V4H9.12329V5.24779C8.52055 5.25664 7.99087 5.36283 7.53425 5.56637C7.07763 5.76991 6.72146 6.04867 6.46575 6.40265C6.21918 6.75664 6.09589 7.15929 6.09589 7.61062V8.35398C6.09589 8.93805 6.30594 9.42035 6.72603 9.80088C7.15525 10.1726 7.78082 10.4248 8.60274 10.5575L11.1233 10.969C11.7808 11.0752 12.1096 11.3451 12.1096 11.7788V12.2301C12.1096 12.5044 11.9817 12.7257 11.726 12.8938C11.4795 13.0531 11.1553 13.1327 10.7534 13.1327H9.23288C8.80365 13.1327 8.46575 13.0044 8.21918 12.7478C7.98173 12.4823 7.86301 12.1195 7.86301 11.6593H6C6 12.615 6.27397 13.3673 6.82192 13.9159C7.379 14.4646 8.14612 14.7434 9.12329 14.7522V16H10.9863V14.7522C11.8995 14.7168 12.6301 14.4823 13.1781 14.0487C13.726 13.615 14 13.0531 14 12.3628V11.4867C14 10.9204 13.7808 10.4602 13.3425 10.1062Z"/>
</svg>
