<svg xmlns="http://www.w3.org/2000/svg" width="16" height="16" viewBox="0 0 16 16" fill="currentColor">
    <path fill-rule="evenodd" clip-rule="evenodd" d="M8 16C12.4184 16 16 12.4184 16 8C16 3.5816 12.4184 0 8 0C3.5816 0 0 3.5816 0 8C0 12.4184 3.5816 16 8 16ZM10.674 8.08496C10.3233 7.79469 9.81553 7.59292 9.15069 7.47965L7.14521 7.13982C6.6411 7.05487 6.38904 6.8354 6.38904 6.48142V6.19469C6.38904 5.9823 6.48037 5.81239 6.66301 5.68496C6.85297 5.55752 7.10137 5.49381 7.40822 5.49381H8.64657C8.9242 5.49381 9.14703 5.58584 9.31507 5.76991C9.4831 5.9469 9.56712 6.18407 9.56712 6.48142H11.0575C11.0575 5.81593 10.8493 5.27788 10.4329 4.86726C10.0237 4.45664 9.4758 4.23363 8.78904 4.19823V3.2H7.29863V4.19823C6.81644 4.20531 6.39269 4.29027 6.0274 4.4531C5.6621 4.61593 5.37717 4.83894 5.1726 5.12212C4.97534 5.40531 4.87671 5.72743 4.87671 6.0885V6.68319C4.87671 7.15044 5.04475 7.53628 5.38082 7.84071C5.7242 8.13805 6.22466 8.33982 6.88219 8.44602L8.89863 8.77522C9.42466 8.86018 9.68767 9.07611 9.68767 9.42301V9.78407C9.68767 10.0035 9.58539 10.1805 9.38082 10.315C9.18356 10.4425 8.9242 10.5062 8.60274 10.5062H7.3863C7.04292 10.5062 6.7726 10.4035 6.57534 10.1982C6.38539 9.98584 6.29041 9.69557 6.29041 9.32743H4.8C4.8 10.092 5.01918 10.6938 5.45753 11.1327C5.9032 11.5717 6.51689 11.7947 7.29863 11.8018V12.8H8.78904V11.8018C9.51963 11.7735 10.1041 11.5858 10.5425 11.2389C10.9808 10.892 11.2 10.4425 11.2 9.89027V9.18938C11.2 8.73628 11.0247 8.36814 10.674 8.08496Z" />
</svg>
