<svg width="40" height="40" viewBox="0 0 40 40" fill="none" xmlns="http://www.w3.org/2000/svg">
<path fill-rule="evenodd" clip-rule="evenodd" d="M26 0H14V2H10V4H8V6H6V8H4V10H2V14H0V26H2V30H4V32H6V34H8V36H10V38H14V40H26V38H30V36H32V34H34V32H36V30H38V26H40V14H38V10H36V8H34V6H32V4H30V2H26V0Z" fill="#FFE500"/>
<path fill-rule="evenodd" clip-rule="evenodd" d="M14 2H26V4H14V2ZM30 6H26V4H30V6ZM32 8H30V6H32V8ZM34 10H32V8H34V10ZM36 14H34V10H36V14ZM36 26V14H38V26H36ZM34 30V26H36V30H34ZM32 32V30H34V32H32ZM30 34H32V32H30V34ZM26 36V34H30V36H26ZM26 36V38H14V36H26Z" fill="#FFF743"/>
<path fill-rule="evenodd" clip-rule="evenodd" d="M14 2H16V4H14V2ZM10 4H12V6H10V4ZM8 8V6H10V8H8ZM6 10V8H8V10H6ZM6 10V12H4V10H6ZM4 28H6V30H4V28ZM8 32H6V30H8V32ZM10 34H8V32H10V34ZM10 34H12V36H10V34ZM14 36H16V38H14V36ZM4 14H2V26H4V14Z" fill="#AF9D00"/>
<path fill-rule="evenodd" clip-rule="evenodd" d="M16 6H20V8H16V6ZM12 10V8H16V10H12ZM10 12V10H12V12H10ZM8 16H10V12H8V16ZM8 24H6V16H8V24ZM10 28H8V24H10V28ZM12 30H10V28H12V30ZM16 32H12V30H16V32ZM16 32H24V34H16V32Z" fill="#AF9D00"/>
<path fill-rule="evenodd" clip-rule="evenodd" d="M24 6H20V8H24V10H28V12H30V16H32V24H30V28H28V30H24V32H28V30H30V28H32V24H34V16H32V12H30V10H28V8H24V6Z" fill="#CEB900"/>
<path fill-rule="evenodd" clip-rule="evenodd" d="M20 8H24V10H20V8ZM28 12H24V10H28V12ZM30 16V12H28V16H30ZM30 24V16H32V24H30ZM28 28H30V24H28V28ZM24 30V28H28V30H24ZM24 30H16V32H24V30Z" fill="#FFF9BB"/>
<path fill-rule="evenodd" clip-rule="evenodd" d="M16 8H20V10H22V12H20V14H18V16H16V18H14V20H12V22H10V24H8V20V18V16H10V14V12H12V10H16V8Z" fill="#E4CD00"/>
<path fill-rule="evenodd" clip-rule="evenodd" d="M30 16H26V18H24V20H22V22H20V24H18V26H16V28H14V30H24V28H28V26V24H30V22V20V18V16Z" fill="#FFF743"/>
<path fill-rule="evenodd" clip-rule="evenodd" d="M18 12H20V14H18V12ZM18 26H16V14H18V26ZM18 26V28H20V26H18Z" fill="#AF9D00"/>
<path fill-rule="evenodd" clip-rule="evenodd" d="M20 12H22V14H20V12ZM22 26V14H24V26H22ZM22 26V28H20V26H22Z" fill="#CEB900"/>
<rect x="20" y="14" width="2" height="12" fill="#FFF9BB"/>
<path fill-rule="evenodd" clip-rule="evenodd" d="M26 0H14V2H10V4H8V6H6V8H4V10H2V14H0V26H2V30H4V32H6V34H8V36H10V38H14V40H26V38H30V36H32V34H34V32H36V30H38V26H40V14H38V10H36V8H34V6H32V4H30V2H26V0ZM26 2V4H30V6H32V8H34V10H36V14H38V26H36V30H34V32H32V34H30V36H26V38H14V36H10V34H8V32H6V30H4V26H2V14H4V10H6V8H8V6H10V4H14V2H26Z" fill="black"/>
</svg>
