<svg xmlns="http://www.w3.org/2000/svg" width="16" height="16" viewBox="0 0 16 16" fill="none">
    <g clip-path="url(#clip0_453_2051)">
        <path d="M8 16.002C12.4183 16.002 16 12.4202 16 8.00195C16 3.58367 12.4183 0.00195312 8 0.00195312C3.58172 0.00195312 0 3.58367 0 8.00195C0 12.4202 3.58172 16.002 8 16.002Z" fill="#627EEA"/>
        <path d="M8.05664 2.57129V6.51432L11.256 8.00358L8.05664 2.57129Z" fill="white" fill-opacity="0.602"/>
        <path d="M8.05725 2.57129L4.85742 8.00358L8.05725 6.51432V2.57129Z" fill="white"/>
        <path d="M8.05664 10.5576V13.2369L11.2581 8.62305L8.05664 10.5576Z" fill="white" fill-opacity="0.602"/>
        <path d="M8.05725 13.2369V10.5572L4.85742 8.62305L8.05725 13.2369Z" fill="white"/>
        <path d="M8.05664 9.939L11.256 8.00391L8.05664 6.51562V9.939Z" fill="white" fill-opacity="0.2"/>
        <path d="M4.85742 8.00391L8.05725 9.939V6.51562L4.85742 8.00391Z" fill="white" fill-opacity="0.602"/>
    </g>
    <defs>
        <clipPath id="clip0_453_2051">
            <rect width="16" height="16" fill="white"/>
        </clipPath>
    </defs>
</svg>
