<svg xmlns="http://www.w3.org/2000/svg" width="20" height="20" viewBox="0 0 20 20" fill="none">
    <g clip-path="url(#clip0_454_1843)">
        <path fill-rule="evenodd" clip-rule="evenodd" d="M1.66585 0.833008H7.49919V1.66634H1.66585V0.833008ZM1.66585 1.66634V2.49967H0.83252V1.66634H1.66585Z" fill="#FFFBD5"/>
        <path d="M18.3341 1.66699H1.66748V18.3337H18.3341V1.66699Z" fill="#FFC107"/>
        <path fill-rule="evenodd" clip-rule="evenodd" d="M7.5 0.833008H18.3333V1.66634H7.5V0.833008ZM18.3333 1.66634V2.49967H19.1667V1.66634H18.3333Z" fill="#FFEB3B"/>
        <path fill-rule="evenodd" clip-rule="evenodd" d="M18.3325 0H1.66585V0.833333H0.83252V1.66667H1.66585V0.833333H18.3325V1.66667H19.1659V0.833333H18.3325V0ZM1.66585 2.5H0.83252V17.5H1.66585V2.5ZM18.3325 2.5H19.1659V17.5H18.3325V2.5Z" fill="#D49F00"/>
        <path d="M8.33252 4.16699H14.9992V5H15.0008V5.83333L15 6.66634L14.1667 6.66699V7.50033H10V6.66634V5.83333H9.16748V5.00033H8.33252V4.16699Z" fill="#E12449"/>
        <path fill-rule="evenodd" clip-rule="evenodd" d="M15.0008 3.33301H7.50081V4.16634H15.0008V3.33301ZM8.33415 6.66634H9.16748V7.49967V8.33301H8.33415V7.49967V6.66634ZM5.00081 6.66634V5.83301H8.33415V6.66634H5.00081ZM5.00081 6.66634H4.16748V10.833H5.00081V6.66634Z" fill="#FF5173"/>
        <path fill-rule="evenodd" clip-rule="evenodd" d="M5 6.66699H5.83333H6.66667H7.5H8.33333V7.50033V8.33366H7.5V9.16699H6.66667V10.0003V10.8337H7.5H8.33333H9.16667V11.667H10H10.8333V12.5003H10H9.16667H8.33333H7.5H6.66667V11.667H5.83333V10.8337H5V10.0003V9.16699V8.33366V7.50033V6.66699Z" fill="#E12449"/>
        <path fill-rule="evenodd" clip-rule="evenodd" d="M14.1659 6.66699H14.9992V7.50033V8.33366V9.16699H9.16585V8.33366H9.99919V7.50033H14.1659V6.66699ZM9.16585 10.8337H14.9992V11.667V12.5003H10.8325V11.667H9.16585V10.8337ZM9.16585 10.8337H8.33252V10.0003H9.16585V10.8337Z" fill="#BB132E"/>
        <path fill-rule="evenodd" clip-rule="evenodd" d="M14.9992 2.5H7.49919V3.33333H14.9992V2.5ZM8.33252 4.16667H5.83252V5H8.33252V5.83333H9.16585V6.66667H9.99919V5.83333H9.16585V5H8.33252V4.16667ZM14.9992 4.16667H15.8325V10.8333H14.9992H9.16585V10H14.9992V4.16667ZM9.16585 10H8.33252V10.8333H7.49919V10V9.16667H8.33252H9.16585V10ZM4.16585 5.83333H4.99919V6.66667H4.16585V5.83333ZM4.16585 6.66667V10.8333H3.33252V6.66667H4.16585ZM7.49919 12.5H6.66585V11.6667H5.83252V10.8333H4.99919V11.6667H5.83252V12.5H6.66585V13.3333H7.49919H8.33252H9.16585H9.99919H10.8325H11.6659H12.4992H13.3325H14.1659H14.9992V12.5H14.1659H13.3325H12.4992H11.6659H10.8325H9.99919H9.16585H8.33252H7.49919Z" fill="#900C22"/>
        <path fill-rule="evenodd" clip-rule="evenodd" d="M7.50081 3.33301H5.83415V4.16634H5.00081V4.99967V5.83301H5.83415H8.33415V6.66634H9.16748V7.49967V8.33301H8.33415H7.50081V9.16634H6.66748V9.99967V10.833H7.50081V9.99967V9.16634H8.33415H9.16748V9.99967H15.0008V9.16634H9.16748V8.33301H10.0008V7.49967V6.66634H9.16748V5.83301H8.33415V4.99967H5.83415V4.16634H7.50081V3.33301ZM15.8341 3.33301H15.0008V4.16634H15.8341V10.833H15.0008V13.333H15.8341V10.833H16.6675V4.16634H15.8341V3.33301ZM4.16748 10.833H5.00081V11.6663H4.16748V10.833ZM5.83415 12.4997H5.00081V11.6663H5.83415V12.4997ZM6.66748 13.333H5.83415V12.4997H6.66748V13.333ZM6.66748 13.333H7.50081H8.33415H9.16748H10.0008H10.8341H11.6675H12.5008H13.3341H14.1675V14.1663H13.3341H12.5008H11.6675H10.8341H10.0008H9.16748H8.33415H7.50081H6.66748V13.333Z" fill="#31000C"/>
        <path fill-rule="evenodd" clip-rule="evenodd" d="M7.50081 14.167H6.66748V15.0003H7.50081H8.33415V14.167H7.50081ZM9.16748 14.167H10.0008H10.8341H11.6675V15.0003H10.8341H10.0008H9.16748V14.167ZM13.3341 14.167H12.5008V15.0003H13.3341H14.1675V14.167H13.3341Z" fill="#9E9E9E"/>
        <path fill-rule="evenodd" clip-rule="evenodd" d="M7.50081 15H6.66748V15.8333H7.50081V15ZM10.8341 15H10.0008V15.8333H10.8341V15ZM13.3341 15H14.1675V15.8333H13.3341V15Z" fill="#BDBDBD"/>
        <path fill-rule="evenodd" clip-rule="evenodd" d="M8.33333 15H9.16667V15.8333H10V16.6667H9.16667H8.33333H7.5V15.8333H8.33333V15ZM11.6667 15H12.5V15.8333H13.3333V16.6667H12.5H11.6667H10.8333V15.8333H11.6667V15Z" fill="#E0E0E0"/>
        <path fill-rule="evenodd" clip-rule="evenodd" d="M9.16748 14.167H8.33415V15.0003H7.50081V15.8337H6.66748V16.667H7.50081V15.8337H8.33415V15.0003H9.16748V15.8337H10.0008V16.667H10.8341V15.8337H11.6675V15.0003H12.5008V15.8337H13.3341V16.667H14.1675V15.8337H13.3341V15.0003H12.5008V14.167H11.6675V15.0003H10.8341V15.8337H10.0008V15.0003H9.16748V14.167Z" fill="#757575"/>
        <path fill-rule="evenodd" clip-rule="evenodd" d="M5.83252 13.333H6.66585V14.1663V14.9997V15.833V16.6663H5.83252V15.833V14.9997V14.1663V13.333ZM14.1659 16.6663H13.3325H12.4992H11.6659H10.8325H9.99919H9.16585H8.33252H7.49919H6.66585V17.4997H7.49919H8.33252H9.16585H9.99919H10.8325H11.6659H12.4992H13.3325H14.1659V16.6663ZM14.1659 16.6663H14.9992V15.833V14.9997V14.1663V13.333H14.1659V14.1663V14.9997V15.833V16.6663Z" fill="#424242"/>
        <path fill-rule="evenodd" clip-rule="evenodd" d="M0.833333 1.66699H0V9.16699H0.833333V1.66699ZM20 1.66699H19.1667V9.16699H20V1.66699ZM0.833333 17.5003H1.66667V18.3337H0.833333V17.5003ZM18.3333 18.3337V19.167H1.66667V18.3337H18.3333ZM18.3333 18.3337V17.5003H19.1667V18.3337H18.3333Z" fill="#A87E00"/>
        <path fill-rule="evenodd" clip-rule="evenodd" d="M0.833333 9.16699H0V18.3337H0.833333V19.167H1.66667V20.0003H18.3333V19.167H19.1667V18.3337H20V9.16699H19.1667V18.3337H18.3333V19.167H1.66667V18.3337H0.833333V9.16699Z" fill="#574100"/>
    </g>
    <defs>
        <clipPath id="clip0_454_1843">
            <rect width="20" height="20" fill="white"/>
        </clipPath>
    </defs>
</svg>
