<svg xmlns="http://www.w3.org/2000/svg" width="21" height="20" viewBox="0 0 21 20" fill="none">
    <g clip-path="url(#clip0_688_4626)">
        <path fill-rule="evenodd" clip-rule="evenodd"
              d="M2.16585 0.83313H7.99919V1.66646H2.16585V0.83313ZM2.16585 1.66646V2.4998H1.33252V1.66646H2.16585Z"
              fill="#FFFBD5"/>
        <path d="M18.8341 1.66687H2.16748V18.3335H18.8341V1.66687Z" fill="#FFC107"/>
        <path fill-rule="evenodd" clip-rule="evenodd"
              d="M8 0.833008H18.8333V1.66634H8V0.833008ZM18.8333 1.66634V2.49967H19.6667V1.66634H18.8333Z"
              fill="#FFEB3B"/>
        <path fill-rule="evenodd" clip-rule="evenodd"
              d="M18.8325 0H2.16585V0.833333H1.33252V1.66667H2.16585V0.833333H18.8325V1.66667H19.6659V0.833333H18.8325V0ZM2.16585 2.5H1.33252V17.5H2.16585V2.5ZM18.8325 2.5H19.6659V17.5H18.8325V2.5Z"
              fill="#D49F00"/>
        <path d="M8.83252 4.16699H15.4992V5H15.5008V5.83333L15.5 6.66634L14.6667 6.66699V7.50033H10.5V6.66634V5.83333H9.66748V5.00033H8.83252V4.16699Z"
              fill="#E12449"/>
        <path fill-rule="evenodd" clip-rule="evenodd"
              d="M15.5008 3.33313H8.00081V4.16646H15.5008V3.33313ZM8.83415 6.66646H9.66748V7.4998V8.33313H8.83415V7.4998V6.66646ZM5.50081 6.66646V5.83313H8.83415V6.66646H5.50081ZM5.50081 6.66646H4.66748V10.8331H5.50081V6.66646Z"
              fill="#FF5173"/>
        <path fill-rule="evenodd" clip-rule="evenodd"
              d="M5.5 6.66699H6.33333H7.16667H8H8.83333V7.50033V8.33366H8V9.16699H7.16667V10.0003V10.8337H8H8.83333H9.66667V11.667H10.5H11.3333V12.5003H10.5H9.66667H8.83333H8H7.16667V11.667H6.33333V10.8337H5.5V10.0003V9.16699V8.33366V7.50033V6.66699Z"
              fill="#E12449"/>
        <path fill-rule="evenodd" clip-rule="evenodd"
              d="M14.6659 6.66687H15.4992V7.5002V8.33354V9.16687H9.66585V8.33354H10.4992V7.5002H14.6659V6.66687ZM9.66585 10.8335H15.4992V11.6669V12.5002H11.3325V11.6669H9.66585V10.8335ZM9.66585 10.8335H8.83252V10.0002H9.66585V10.8335Z"
              fill="#BB132E"/>
        <path fill-rule="evenodd" clip-rule="evenodd"
              d="M15.4992 2.5H7.99919V3.33333H15.4992V2.5ZM8.83252 4.16667H6.33252V5H8.83252V5.83333H9.66585V6.66667H10.4992V5.83333H9.66585V5H8.83252V4.16667ZM15.4992 4.16667H16.3325V10.8333H15.4992H9.66585V10H15.4992V4.16667ZM9.66585 10H8.83252V10.8333H7.99919V10V9.16667H8.83252H9.66585V10ZM4.66585 5.83333H5.49919V6.66667H4.66585V5.83333ZM4.66585 6.66667V10.8333H3.83252V6.66667H4.66585ZM7.99919 12.5H7.16585V11.6667H6.33252V10.8333H5.49919V11.6667H6.33252V12.5H7.16585V13.3333H7.99919H8.83252H9.66585H10.4992H11.3325H12.1659H12.9992H13.8325H14.6659H15.4992V12.5H14.6659H13.8325H12.9992H12.1659H11.3325H10.4992H9.66585H8.83252H7.99919Z"
              fill="#900C22"/>
        <path fill-rule="evenodd" clip-rule="evenodd"
              d="M8.00081 3.33313H6.33415V4.16646H5.50081V4.9998V5.83313H6.33415H8.83415V6.66646H9.66748V7.4998V8.33313H8.83415H8.00081V9.16646H7.16748V9.9998V10.8331H8.00081V9.9998V9.16646H8.83415H9.66748V9.9998H15.5008V9.16646H9.66748V8.33313H10.5008V7.4998V6.66646H9.66748V5.83313H8.83415V4.9998H6.33415V4.16646H8.00081V3.33313ZM16.3341 3.33313H15.5008V4.16646H16.3341V10.8331H15.5008V13.3331H16.3341V10.8331H17.1675V4.16646H16.3341V3.33313ZM4.66748 10.8331H5.50081V11.6665H4.66748V10.8331ZM6.33415 12.4998H5.50081V11.6665H6.33415V12.4998ZM7.16748 13.3331H6.33415V12.4998H7.16748V13.3331ZM7.16748 13.3331H8.00081H8.83415H9.66748H10.5008H11.3341H12.1675H13.0008H13.8341H14.6675V14.1665H13.8341H13.0008H12.1675H11.3341H10.5008H9.66748H8.83415H8.00081H7.16748V13.3331Z"
              fill="#31000C"/>
        <path fill-rule="evenodd" clip-rule="evenodd"
              d="M8.00081 14.1669H7.16748V15.0002H8.00081H8.83415V14.1669H8.00081ZM9.66748 14.1669H10.5008H11.3341H12.1675V15.0002H11.3341H10.5008H9.66748V14.1669ZM13.8341 14.1669H13.0008V15.0002H13.8341H14.6675V14.1669H13.8341Z"
              fill="#9E9E9E"/>
        <path fill-rule="evenodd" clip-rule="evenodd"
              d="M8.00081 15H7.16748V15.8333H8.00081V15ZM11.3341 15H10.5008V15.8333H11.3341V15ZM13.8341 15H14.6675V15.8333H13.8341V15Z"
              fill="#BDBDBD"/>
        <path fill-rule="evenodd" clip-rule="evenodd"
              d="M8.83333 15H9.66667V15.8333H10.5V16.6667H9.66667H8.83333H8V15.8333H8.83333V15ZM12.1667 15H13V15.8333H13.8333V16.6667H13H12.1667H11.3333V15.8333H12.1667V15Z"
              fill="#E0E0E0"/>
        <path fill-rule="evenodd" clip-rule="evenodd"
              d="M9.66748 14.1669H8.83415V15.0002H8.00081V15.8335H7.16748V16.6669H8.00081V15.8335H8.83415V15.0002H9.66748V15.8335H10.5008V16.6669H11.3341V15.8335H12.1675V15.0002H13.0008V15.8335H13.8341V16.6669H14.6675V15.8335H13.8341V15.0002H13.0008V14.1669H12.1675V15.0002H11.3341V15.8335H10.5008V15.0002H9.66748V14.1669Z"
              fill="#757575"/>
        <path fill-rule="evenodd" clip-rule="evenodd"
              d="M6.33252 13.3331H7.16585V14.1665V14.9998V15.8331V16.6665H6.33252V15.8331V14.9998V14.1665V13.3331ZM14.6659 16.6665H13.8325H12.9992H12.1659H11.3325H10.4992H9.66585H8.83252H7.99919H7.16585V17.4998H7.99919H8.83252H9.66585H10.4992H11.3325H12.1659H12.9992H13.8325H14.6659V16.6665ZM14.6659 16.6665H15.4992V15.8331V14.9998V14.1665V13.3331H14.6659V14.1665V14.9998V15.8331V16.6665Z"
              fill="#424242"/>
        <path fill-rule="evenodd" clip-rule="evenodd"
              d="M1.33333 1.66699H0.5V9.16699H1.33333V1.66699ZM20.5 1.66699H19.6667V9.16699H20.5V1.66699ZM1.33333 17.5003H2.16667V18.3337H1.33333V17.5003ZM18.8333 18.3337V19.167H2.16667V18.3337H18.8333ZM18.8333 18.3337V17.5003H19.6667V18.3337H18.8333Z"
              fill="#A87E00"/>
        <path fill-rule="evenodd" clip-rule="evenodd"
              d="M1.33333 9.16699H0.5V18.3337H1.33333V19.167H2.16667V20.0003H18.8333V19.167H19.6667V18.3337H20.5V9.16699H19.6667V18.3337H18.8333V19.167H2.16667V18.3337H1.33333V9.16699Z"
              fill="#574100"/>
    </g>
    <defs>
        <clipPath id="clip0_688_4626">
            <rect width="20" height="20" fill="white" transform="translate(0.5)"/>
        </clipPath>
    </defs>
</svg>