<svg width="56" height="32" viewBox="0 0 56 32" fill="none" xmlns="http://www.w3.org/2000/svg">
<path d="M16 6V2H40V6H42V10L46 12V16H48V20L52 22V26H54V30H2V26H4V22L8 20V16H10V10H14V6H16Z" fill="#F5F500"/>
<path fill-rule="evenodd" clip-rule="evenodd" d="M16 0H40V2H16V0ZM14 6V4V2H16V4V6H14ZM42 6V8V10H14V8V6H12V8V10H10V12H8V16H6V20H4V22H2V26H0V30H2V32H54V30H56V26H54V22H52V20H50V16H48V12H46V10H44V8V6H42ZM34 16H32V12H10V16H8V20H34V16ZM34 16V12H46V16H48V20H36V16H34ZM42 6V4V2H40V4V6H42ZM41 26V22H52V26H54V30H43V26H41ZM41 30V26H39V22H26V26H24V22H4V26H2V30H26V26H28V30H41Z" fill="black"/>
<path fill-rule="evenodd" clip-rule="evenodd" d="M24 2H16V4V6H14V8V10H18V8H20V6H22V4H24V2ZM18 12V14H16V16H14V18H12V20H8V18V16H10V14V12H18ZM12 22V24H10V26H8V28H6V30H2V28V26H4V24V22H12Z" fill="#E99209"/>
<path fill-rule="evenodd" clip-rule="evenodd" d="M32 2H24V4H22V6H20V8H18V10H26V8H28V6H30V4H32V2ZM26 12V14H24V16H22V18H20V20H12V18H14V16H16V14H18V12H26ZM20 22V24H18V26H16V28H14V30H6V28H8V26H10V24H12V22H20ZM34 22V24H32V26H30V28V30H28V28V26H26V24V22H34ZM34 12H40V14H38V16H34V14V12ZM41 22H47V24H45V26H41V24V22Z" fill="#F5B402"/>
<path fill-rule="evenodd" clip-rule="evenodd" d="M40 4H38V6H36V8H34V10H42V8V6H40V4ZM32 14H30V16H28V18H26V20H34V18V16H32V14ZM22 26H26V28V30H20V28H22V26ZM37 26H41V28V30H35V28H37V26ZM44 14H46V16H48V18V20H40V18H42V16H44V14ZM52 24H50V26H48V28H46V30H54V28V26H52V24Z" fill="#E8D700"/>
<path fill-rule="evenodd" clip-rule="evenodd" d="M32 2H34V4H32V2ZM30 6V4H32V6H30ZM30 6V8H28V6H30ZM26 14H24V16H22V18H24V16H26V14ZM26 14V12H28V14H26ZM18 24H20V26H18V24ZM18 26V28H16V26H18ZM20 24H22V22H20V24ZM34 24H32V26H30V28H32V26H34V24ZM34 24V22H36V24H34ZM38 14H40V16H38V14ZM38 16V18H36V16H38ZM40 14H42V12H40V14ZM47 24H45V26H43V28H45V26H47V24ZM47 24V22H49V24H47Z" fill="#FFFDE6"/>
</svg>
