<svg xmlns="http://www.w3.org/2000/svg" width="16" height="16" viewBox="0 0 16 16"
     fill="currentColor">
    <path d="M8.34197 0.666504C7.91197 0.666504 7.51997 0.89317 6.73731 1.3445L2.44999 3.81516C1.71161 4.23208 1.09628 4.83641 0.666116 5.56716C0.235954 6.29791 0.00618459 7.12921 0 7.97714L0 8.13447C0.00623263 8.98132 0.235474 9.81157 0.664642 10.5416C1.09381 11.2717 1.70775 11.8758 2.44466 12.2931L5.12665 13.8418C6.69597 14.7484 7.48064 15.2031 8.34263 15.2031C9.20396 15.2038 9.98929 14.7511 11.5593 13.8445L14.3933 12.2091C15.1779 11.7558 15.5693 11.5291 15.7846 11.1565C15.9999 10.7831 16.0006 10.3298 15.9999 9.42314V7.66981C16.0001 7.54817 15.9682 7.42863 15.9075 7.3232C15.8469 7.21777 15.7595 7.13016 15.6543 7.06916C15.549 7.00816 15.4296 6.97593 15.308 6.97569C15.1863 6.97545 15.0668 7.00723 14.9613 7.06781L9.14263 10.4171C8.7513 10.6418 8.55597 10.7551 8.34197 10.7551C8.12663 10.7551 7.9313 10.6431 7.5393 10.4178L3.60332 8.15581C3.40532 8.04181 3.30599 7.98514 3.22665 7.97514C3.13899 7.96357 3.04997 7.98137 2.9735 8.02575C2.89703 8.07014 2.83742 8.13862 2.80399 8.22047C2.77399 8.29447 2.77399 8.40847 2.77532 8.63714C2.77666 8.80514 2.77532 8.88914 2.79199 8.96647C2.82732 9.13914 2.91799 9.29514 3.04999 9.41114C3.10932 9.46247 3.18199 9.50447 3.32732 9.58847L7.5373 12.0218C7.92997 12.2485 8.12663 12.3618 8.34197 12.3618C8.5573 12.3618 8.7533 12.2485 9.14596 12.0225L14.3059 9.04314C14.4406 8.9658 14.5073 8.92847 14.5573 8.95647C14.6073 8.9858 14.6073 9.06314 14.6073 9.2178V10.0131C14.6073 10.2398 14.6079 10.3531 14.5539 10.4458C14.5006 10.5391 14.4026 10.5951 14.2059 10.7085L9.95129 13.1651C9.16596 13.6185 8.7733 13.8451 8.34263 13.8451C7.91197 13.8451 7.51864 13.6185 6.73464 13.1638L2.75466 10.8625L2.72599 10.8458C2.31582 10.6061 1.97522 10.2635 1.73779 9.85203C1.50035 9.44052 1.37428 8.97423 1.37199 8.49914V7.73514C1.37219 7.47268 1.44125 7.21486 1.57227 6.98744C1.70329 6.76002 1.8917 6.57096 2.11866 6.43915C2.31942 6.32294 2.54726 6.2617 2.77923 6.26158C3.0112 6.26147 3.2391 6.32248 3.43999 6.43848L6.73731 8.34381C7.51997 8.79647 7.91197 9.02314 8.34197 9.0238C8.77197 9.0238 9.16396 8.79714 9.94863 8.34581L14.9366 5.47515C15.0474 5.41138 15.1394 5.31953 15.2034 5.20887C15.2674 5.09821 15.301 4.97264 15.301 4.84482C15.301 4.717 15.2674 4.59143 15.2034 4.48077C15.1394 4.37011 15.0474 4.27827 14.9366 4.21449L9.94663 1.34183C9.1633 0.891836 8.77197 0.666504 8.34263 0.666504H8.34197Z"/>
</svg>
