<svg width="21" height="20" viewBox="0 0 21 20" fill="currentColor" xmlns="http://www.w3.org/2000/svg">
    <path d="M10.9275 0.833984C10.39 0.833984 9.89996 1.11732 8.92163 1.68148L3.56249 4.7698C2.63951 5.29095 1.87035 6.04637 1.33265 6.95981C0.794943 7.87324 0.507731 8.91236 0.5 9.97228L0.5 10.1689C0.507791 11.2275 0.794343 12.2653 1.3308 13.1779C1.86726 14.0905 2.63469 14.8456 3.55582 15.3673L6.90831 17.3031C8.86997 18.4364 9.8508 19.0047 10.9283 19.0047C12.005 19.0056 12.9866 18.4397 14.9491 17.3064L18.4916 15.2623C19.4724 14.6956 19.9616 14.4123 20.2308 13.9464C20.4999 13.4798 20.5008 12.9131 20.4999 11.7798V9.58812C20.5001 9.43606 20.4603 9.28664 20.3844 9.15486C20.3086 9.02307 20.1994 8.91355 20.0678 8.83731C19.9363 8.76106 19.787 8.72077 19.6349 8.72047C19.4829 8.72017 19.3334 8.75989 19.2016 8.83562L11.9283 13.0223C11.4391 13.3031 11.195 13.4448 10.9275 13.4448C10.6583 13.4448 10.4141 13.3048 9.92413 13.0231L5.00415 10.1956C4.75665 10.0531 4.63248 9.98228 4.53332 9.96978C4.42374 9.95532 4.31246 9.97756 4.21687 10.033C4.12128 10.0885 4.04677 10.1741 4.00499 10.2764C3.96749 10.3689 3.96749 10.5114 3.96915 10.7973C3.97082 11.0073 3.96915 11.1123 3.98999 11.2089C4.03415 11.4248 4.14749 11.6198 4.31248 11.7648C4.38665 11.8289 4.47748 11.8814 4.65915 11.9864L9.92163 15.0281C10.4125 15.3114 10.6583 15.4531 10.9275 15.4531C11.1966 15.4531 11.4416 15.3114 11.9325 15.0289L18.3824 11.3048C18.5508 11.2081 18.6341 11.1614 18.6966 11.1964C18.7591 11.2331 18.7591 11.3298 18.7591 11.5231V12.5173C18.7591 12.8006 18.7599 12.9423 18.6924 13.0581C18.6258 13.1748 18.5033 13.2448 18.2574 13.3864L12.9391 16.4573C11.9575 17.0239 11.4666 17.3073 10.9283 17.3073C10.39 17.3073 9.8983 17.0239 8.9183 16.4556L3.94332 13.5789L3.90749 13.5581C3.39478 13.2584 2.96903 12.8303 2.67224 12.3159C2.37544 11.8015 2.21785 11.2186 2.21499 10.6248V9.66978C2.21524 9.3417 2.30156 9.01943 2.46534 8.73516C2.62912 8.45088 2.86462 8.21456 3.14832 8.04979C3.39928 7.90454 3.68408 7.82798 3.97404 7.82783C4.264 7.82769 4.54888 7.90396 4.79998 8.04896L8.92163 10.4306C9.89996 10.9964 10.39 11.2798 10.9275 11.2806C11.465 11.2806 11.955 10.9973 12.9358 10.4331L19.1708 6.84479C19.3092 6.76507 19.4242 6.65027 19.5042 6.51194C19.5842 6.37362 19.6263 6.21666 19.6263 6.05688C19.6263 5.8971 19.5842 5.74014 19.5042 5.60182C19.4242 5.46349 19.3092 5.34869 19.1708 5.26897L12.9333 1.67815C11.9541 1.11565 11.465 0.833984 10.9283 0.833984H10.9275Z"/>
</svg>
