<svg width="20" height="20" viewBox="0 0 20 20" xmlns="http://www.w3.org/2000/svg"
     fill="currentColor">
    <path d="M10 17.5C8.975 17.5 8.00625 17.303 7.09375 16.909C6.18125 16.515 5.3845 15.9775 4.7035 15.2965C4.0225 14.6155 3.485 13.8188 3.091 12.9062C2.697 11.9937 2.5 11.025 2.5 10C2.5 8.9625 2.697 7.99075 3.091 7.08475C3.485 6.17875 4.0225 5.385 4.7035 4.7035C5.3845 4.022 6.18125 3.4845 7.09375 3.091C8.00625 2.6975 8.975 2.5005 10 2.5C11.0375 2.5 12.0095 2.697 12.916 3.091C13.8225 3.485 14.616 4.0225 15.2965 4.7035C15.977 5.3845 16.5145 6.17825 16.909 7.08475C17.3035 7.99125 17.5005 8.963 17.5 10C17.5 11.025 17.303 11.9937 16.909 12.9062C16.515 13.8188 15.9775 14.6157 15.2965 15.2972C14.6155 15.9788 13.8217 16.5162 12.9152 16.9097C12.0087 17.3032 11.037 17.5 10 17.5ZM10 15.9625C10.325 15.5125 10.6062 15.0438 10.8438 14.5563C11.0813 14.0688 11.275 13.55 11.425 13H8.575C8.725 13.55 8.91875 14.0688 9.15625 14.5563C9.39375 15.0438 9.675 15.5125 10 15.9625ZM8.05 15.6625C7.825 15.25 7.62825 14.8217 7.45975 14.3778C7.29125 13.9338 7.1505 13.4745 7.0375 13H4.825C5.1875 13.625 5.64075 14.1687 6.18475 14.6312C6.72875 15.0937 7.3505 15.4375 8.05 15.6625ZM11.95 15.6625C12.65 15.4375 13.272 15.0937 13.816 14.6312C14.36 14.1687 14.813 13.625 15.175 13H12.9625C12.85 13.475 12.7095 13.9345 12.541 14.3785C12.3725 14.8225 12.1755 15.2505 11.95 15.6625ZM4.1875 11.5H6.7375C6.7 11.25 6.672 11.0033 6.6535 10.7597C6.635 10.5162 6.6255 10.263 6.625 10C6.6245 9.737 6.634 9.484 6.6535 9.241C6.673 8.998 6.701 8.751 6.7375 8.5H4.1875C4.125 8.75 4.07825 8.997 4.04725 9.241C4.01625 9.485 4.0005 9.738 4 10C3.9995 10.262 4.01525 10.5152 4.04725 10.7597C4.07925 11.0042 4.126 11.251 4.1875 11.5ZM8.2375 11.5H11.7625C11.8 11.25 11.8282 11.0033 11.8472 10.7597C11.8663 10.5162 11.8755 10.263 11.875 10C11.8745 9.737 11.865 9.484 11.8465 9.241C11.828 8.998 11.8 8.751 11.7625 8.5H8.2375C8.2 8.75 8.172 8.997 8.1535 9.241C8.135 9.485 8.1255 9.738 8.125 10C8.1245 10.262 8.134 10.5152 8.1535 10.7597C8.173 11.0042 8.201 11.251 8.2375 11.5ZM13.2625 11.5H15.8125C15.875 11.25 15.922 11.0033 15.9535 10.7597C15.985 10.5162 16.0005 10.263 16 10C15.9995 9.737 15.984 9.484 15.9535 9.241C15.923 8.998 15.876 8.751 15.8125 8.5H13.2625C13.3 8.75 13.3282 8.997 13.3472 9.241C13.3662 9.485 13.3755 9.738 13.375 10C13.3745 10.262 13.365 10.5152 13.3465 10.7597C13.328 11.0042 13.3 11.251 13.2625 11.5ZM12.9625 7H15.175C14.8125 6.375 14.3595 5.83125 13.816 5.36875C13.2725 4.90625 12.6505 4.5625 11.95 4.3375C12.175 4.75 12.372 5.17825 12.541 5.62225C12.71 6.06625 12.8505 6.5255 12.9625 7ZM8.575 7H11.425C11.275 6.45 11.0813 5.93125 10.8438 5.44375C10.6062 4.95625 10.325 4.4875 10 4.0375C9.675 4.4875 9.39375 4.95625 9.15625 5.44375C8.91875 5.93125 8.725 6.45 8.575 7ZM4.825 7H7.0375C7.15 6.525 7.29075 6.0655 7.45975 5.6215C7.62875 5.1775 7.8255 4.7495 8.05 4.3375C7.35 4.5625 6.728 4.90625 6.184 5.36875C5.64 5.83125 5.187 6.375 4.825 7Z"/>
</svg>
