<svg xmlns="http://www.w3.org/2000/svg" width="16" height="16" viewBox="0 0 16 16"
     fill="currentColor">
    <path d="M8 14C7.18 14 6.405 13.8424 5.675 13.5272C4.945 13.212 4.3076 12.782 3.7628 12.2372C3.218 11.6924 2.788 11.055 2.4728 10.325C2.1576 9.595 2 8.82 2 8C2 7.17 2.1576 6.3926 2.4728 5.6678C2.788 4.943 3.218 4.308 3.7628 3.7628C4.3076 3.2176 4.945 2.7876 5.675 2.4728C6.405 2.158 7.18 2.0004 8 2C8.83 2 9.6076 2.1576 10.3328 2.4728C11.058 2.788 11.6928 3.218 12.2372 3.7628C12.7816 4.3076 13.2116 4.9426 13.5272 5.6678C13.8428 6.393 14.0004 7.1704 14 8C14 8.82 13.8424 9.595 13.5272 10.325C13.212 11.055 12.782 11.6926 12.2372 12.2378C11.6924 12.783 11.0574 13.213 10.3322 13.5278C9.607 13.8426 8.8296 14 8 14ZM8 12.77C8.26 12.41 8.485 12.035 8.675 11.645C8.865 11.255 9.02 10.84 9.14 10.4H6.86C6.98 10.84 7.135 11.255 7.325 11.645C7.515 12.035 7.74 12.41 8 12.77ZM6.44 12.53C6.26 12.2 6.1026 11.8574 5.9678 11.5022C5.833 11.147 5.7204 10.7796 5.63 10.4H3.86C4.15 10.9 4.5126 11.335 4.9478 11.705C5.383 12.075 5.8804 12.35 6.44 12.53ZM9.56 12.53C10.12 12.35 10.6176 12.075 11.0528 11.705C11.488 11.335 11.8504 10.9 12.14 10.4H10.37C10.28 10.78 10.1676 11.1476 10.0328 11.5028C9.898 11.858 9.7404 12.2004 9.56 12.53ZM3.35 9.2H5.39C5.36 9 5.3376 8.8026 5.3228 8.6078C5.308 8.413 5.3004 8.2104 5.3 8C5.2996 7.7896 5.3072 7.5872 5.3228 7.3928C5.3384 7.1984 5.3608 7.0008 5.39 6.8H3.35C3.3 7 3.2626 7.1976 3.2378 7.3928C3.213 7.588 3.2004 7.7904 3.2 8C3.1996 8.2096 3.2122 8.4122 3.2378 8.6078C3.2634 8.8034 3.3008 9.0008 3.35 9.2ZM6.59 9.2H9.41C9.44 9 9.4626 8.8026 9.4778 8.6078C9.493 8.413 9.5004 8.2104 9.5 8C9.4996 7.7896 9.492 7.5872 9.4772 7.3928C9.4624 7.1984 9.44 7.0008 9.41 6.8H6.59C6.56 7 6.5376 7.1976 6.5228 7.3928C6.508 7.588 6.5004 7.7904 6.5 8C6.4996 8.2096 6.5072 8.4122 6.5228 8.6078C6.5384 8.8034 6.5608 9.0008 6.59 9.2ZM10.61 9.2H12.65C12.7 9 12.7376 8.8026 12.7628 8.6078C12.788 8.413 12.8004 8.2104 12.8 8C12.7996 7.7896 12.7872 7.5872 12.7628 7.3928C12.7384 7.1984 12.7008 7.0008 12.65 6.8H10.61C10.64 7 10.6626 7.1976 10.6778 7.3928C10.693 7.588 10.7004 7.7904 10.7 8C10.6996 8.2096 10.692 8.4122 10.6772 8.6078C10.6624 8.8034 10.64 9.0008 10.61 9.2ZM10.37 5.6H12.14C11.85 5.1 11.4876 4.665 11.0528 4.295C10.618 3.925 10.1204 3.65 9.56 3.47C9.74 3.8 9.8976 4.1426 10.0328 4.4978C10.168 4.853 10.2804 5.2204 10.37 5.6ZM6.86 5.6H9.14C9.02 5.16 8.865 4.745 8.675 4.355C8.485 3.965 8.26 3.59 8 3.23C7.74 3.59 7.515 3.965 7.325 4.355C7.135 4.745 6.98 5.16 6.86 5.6ZM3.86 5.6H5.63C5.72 5.22 5.8326 4.8524 5.9678 4.4972C6.103 4.142 6.2604 3.7996 6.44 3.47C5.88 3.65 5.3824 3.925 4.9472 4.295C4.512 4.665 4.1496 5.1 3.86 5.6Z"/>
</svg>
