<svg width="160" height="24" viewBox="0 0 160 24" fill="none" xmlns="http://www.w3.org/2000/svg">
    <path fill-rule="evenodd" clip-rule="evenodd"
          d="M70.901 17.6499C71.4704 17.9579 72.1237 18.1119 72.861 18.1119H74.345C75.0824 18.1119 75.731 17.9579 76.291 17.6499C76.8604 17.3326 77.299 16.8939 77.607 16.3339C77.9244 15.7646 78.083 15.1066 78.083 14.3599V11.8399C78.083 11.0932 77.9244 10.4399 77.607 9.87989C77.299 9.31056 76.8604 8.87189 76.291 8.56389C75.731 8.24656 75.0824 8.08789 74.345 8.08789H72.861C72.1237 8.08789 71.4704 8.24656 70.901 8.56389C70.341 8.87189 69.9024 9.31056 69.585 9.87989C69.277 10.4399 69.123 11.0932 69.123 11.8399V14.3599C69.123 15.1066 69.277 15.7646 69.585 16.3339C69.9024 16.8939 70.341 17.3326 70.901 17.6499ZM75.647 15.8159C75.3204 16.2079 74.8864 16.4039 74.345 16.4039H72.861C72.3197 16.4039 71.881 16.2079 71.545 15.8159C71.2184 15.4239 71.055 14.9106 71.055 14.2759V11.9239C71.055 11.2892 71.2184 10.7759 71.545 10.3839C71.881 9.99189 72.3197 9.79589 72.861 9.79589H74.345C74.8864 9.79589 75.3204 9.99189 75.647 10.3839C75.983 10.7759 76.151 11.2892 76.151 11.9239V14.2759C76.151 14.9106 75.983 15.4239 75.647 15.8159ZM82.8939 18.1119C82.1752 18.1119 81.5406 17.9579 80.9899 17.6499C80.4392 17.3419 80.0099 16.9079 79.7019 16.3479C79.4032 15.7786 79.2539 15.1252 79.2539 14.3879V11.8119C79.2539 11.0746 79.4032 10.4259 79.7019 9.86589C80.0099 9.29656 80.4392 8.85789 80.9899 8.54989C81.5499 8.24189 82.1939 8.08789 82.9219 8.08789H84.4899C85.1899 8.08789 85.8059 8.22789 86.3379 8.50789C86.8699 8.78789 87.2806 9.18456 87.5699 9.69789C87.8686 10.2112 88.0179 10.8039 88.0179 11.4759H86.1139C86.1139 10.9719 85.9646 10.5659 85.6659 10.2579C85.3672 9.94989 84.9752 9.79589 84.4899 9.79589H82.9219C82.3992 9.79589 81.9792 9.99189 81.6619 10.3839C81.3446 10.7666 81.1859 11.2706 81.1859 11.8959V14.3039C81.1859 14.9292 81.3399 15.4379 81.6479 15.8299C81.9652 16.2126 82.3806 16.4039 82.8939 16.4039H84.5459C85.0219 16.4039 85.4139 16.2312 85.7219 15.8859C86.0392 15.5406 86.1979 15.1112 86.1979 14.5979V14.2899H83.4819V12.6099H88.1019V14.5979C88.1019 15.2792 87.9526 15.8859 87.6539 16.4179C87.3552 16.9499 86.9352 17.3652 86.3939 17.6639C85.8526 17.9626 85.2366 18.1119 84.5459 18.1119H82.8939ZM90.9987 17.6499C91.568 17.9579 92.2214 18.1119 92.9587 18.1119H94.4427C95.18 18.1119 95.8287 17.9579 96.3887 17.6499C96.958 17.3326 97.3967 16.8939 97.7047 16.3339C98.022 15.7646 98.1807 15.1066 98.1807 14.3599V11.8399C98.1807 11.0932 98.022 10.4399 97.7047 9.87989C97.3967 9.31056 96.958 8.87189 96.3887 8.56389C95.8287 8.24656 95.18 8.08789 94.4427 8.08789H92.9587C92.2214 8.08789 91.568 8.24656 90.9987 8.56389C90.4387 8.87189 90 9.31056 89.6827 9.87989C89.3747 10.4399 89.2207 11.0932 89.2207 11.8399V14.3599C89.2207 15.1066 89.3747 15.7646 89.6827 16.3339C90 16.8939 90.4387 17.3326 90.9987 17.6499ZM95.7447 15.8159C95.418 16.2079 94.984 16.4039 94.4427 16.4039H92.9587C92.4174 16.4039 91.9787 16.2079 91.6427 15.8159C91.316 15.4239 91.1527 14.9106 91.1527 14.2759V11.9239C91.1527 11.2892 91.316 10.7759 91.6427 10.3839C91.9787 9.99189 92.4174 9.79589 92.9587 9.79589H94.4427C94.984 9.79589 95.418 9.99189 95.7447 10.3839C96.0807 10.7759 96.2487 11.2892 96.2487 11.9239V14.2759C96.2487 14.9106 96.0807 15.4239 95.7447 15.8159ZM103.901 13.5757H99.2949V15.2277H103.901V13.5757ZM62.899 17.9997C62.4883 17.9997 62.157 17.883 61.905 17.6497C61.6623 17.407 61.541 17.0897 61.541 16.6977V8.19971H63.473V16.3197H68.793V17.9997H62.899ZM60.1372 13.5757H55.5312V15.2277H60.1372V13.5757Z"
          fill="#1A1717"/>
</svg>