<svg xmlns="http://www.w3.org/2000/svg" width="24" height="23" viewBox="0 0 24 23" fill="none">
    <path d="M23.4437 0L13.1455 7.61993L15.0605 3.12926L23.4437 0Z" fill="#E17726"/>
    <path d="M0.580566 0.00878906L8.94127 3.12964L10.7597 7.67919L0.580566 0.00878906Z" fill="#E27625"/>
    <path d="M19.2991 16.2051L23.8508 16.2917L22.26 21.6957L16.7061 20.1665L19.2991 16.2051Z" fill="#E27625"/>
    <path d="M4.70045 16.2051L7.28394 20.1665L1.73926 21.6958L0.158203 16.2917L4.70045 16.2051Z" fill="#E27625"/>
    <path d="M10.5123 6.52051L10.6984 12.5283L5.13232 12.2751L6.71554 9.88658L6.73557 9.86354L10.5123 6.52051Z" fill="#E27625"/>
    <path d="M13.43 6.45312L17.2644 9.86342L17.2842 9.88627L18.8675 12.2748L13.3027 12.528L13.43 6.45312Z" fill="#E27625"/>
    <path d="M7.44678 16.2227L10.486 18.5907L6.95557 20.2952L7.44678 16.2227Z" fill="#E27625"/>
    <path d="M16.5537 16.2227L17.0347 20.2956L13.5142 18.5909L16.5537 16.2227Z" fill="#E27625"/>
    <path d="M13.5918 18.3672L17.1643 20.0971L13.8412 21.6764L13.8757 20.6326L13.5918 18.3672Z" fill="#D5BFB2"/>
    <path d="M10.4075 18.3682L10.1348 20.6157L10.1571 21.6754L6.82617 20.0973L10.4075 18.3682Z" fill="#D5BFB2"/>
    <path d="M9.37527 13.3115L10.3088 15.2735L7.13037 14.3424L9.37527 13.3115Z" fill="#233447"/>
    <path d="M14.6242 13.3125L16.8797 14.3432L13.6909 15.274L14.6242 13.3125Z" fill="#233447"/>
    <path d="M7.69034 16.2031L7.17655 20.4256L4.42285 16.2954L7.69034 16.2031Z" fill="#CC6228"/>
    <path d="M16.3101 16.2031L19.5777 16.2954L16.8136 20.4257L16.3101 16.2031Z" fill="#CC6228"/>
    <path d="M18.9479 12.0361L16.5699 14.4597L14.7365 13.6218L13.8587 15.4672L13.2832 12.2939L18.9479 12.0361Z" fill="#CC6228"/>
    <path d="M5.05078 12.0361L10.7165 12.2939L10.141 15.4672L9.26304 13.6221L7.43926 14.4597L5.05078 12.0361Z" fill="#CC6228"/>
    <path d="M4.89062 11.5391L7.58109 14.2691L7.67433 16.9643L4.89062 11.5391Z" fill="#E27525"/>
    <path d="M19.1124 11.5342L16.3237 16.9692L16.4287 14.2691L19.1124 11.5342Z" fill="#E27525"/>
    <path d="M10.5848 11.7051L10.6931 12.3866L10.9607 14.0845L10.7887 19.2994L9.97537 15.1102L9.9751 15.0669L10.5848 11.7051Z" fill="#E27525"/>
    <path d="M13.4135 11.6963L14.0249 15.0675L14.0246 15.1109L13.2093 19.3105L13.177 18.2601L13.0498 14.0543L13.4135 11.6963Z" fill="#E27525"/>
    <path d="M16.6675 14.1611L16.5765 16.5028L13.7383 18.7141L13.1646 18.3087L13.8077 14.996L16.6675 14.1611Z" fill="#F5841F"/>
    <path d="M7.34229 14.1611L10.1923 14.9961L10.8354 18.3087L10.2616 18.7141L7.42329 16.5026L7.34229 14.1611Z" fill="#F5841F"/>
    <path d="M6.2832 19.5801L9.91433 21.3006L9.89896 20.5659L10.2028 20.2992H13.7966L14.1114 20.565L14.0882 21.2992L17.6963 19.5844L15.9406 21.0353L13.8176 22.4934H10.1737L8.05203 21.0293L6.2832 19.5801Z" fill="#C0AC9D"/>
    <path d="M13.3316 18.1387L13.845 18.5013L14.1458 20.9018L13.7104 20.5341H10.2909L9.86377 20.9092L10.1548 18.5015L10.6683 18.1387H13.3316Z" fill="#161616"/>
    <path d="M22.7639 0.210938L24 3.91945L23.228 7.66911L23.7778 8.09321L23.0339 8.66075L23.5929 9.0925L22.8527 9.76672L23.3071 10.0958L22.101 11.5045L17.1538 10.0641L17.1109 10.0411L13.5459 7.03377L22.7639 0.210938Z" fill="#763E1A"/>
    <path d="M1.23619 0.210938L10.4542 7.03377L6.88916 10.0411L6.84628 10.0641L1.89907 11.5045L0.692925 10.0958L1.14706 9.76695L0.40711 9.0925L0.965114 8.66122L0.210125 8.09205L0.780589 7.6677L0 3.91959L1.23619 0.210938Z" fill="#763E1A"/>
    <path d="M16.9118 9.74902L22.1536 11.2752L23.8566 16.5238L19.3638 16.5238L16.2681 16.5629L18.5194 12.1746L16.9118 9.74902Z" fill="#F5841F"/>
    <path d="M7.08822 9.74902L5.48029 12.1746L7.73192 16.5628L4.63772 16.5238H0.152832L1.84627 11.2752L7.08822 9.74902Z" fill="#F5841F"/>
    <path d="M15.3172 3.10449L13.851 7.06437L13.5399 12.4138L13.4208 14.0905L13.4114 18.3737H10.5884L10.5793 14.0985L10.4598 12.4123L10.1486 7.06437L8.68262 3.10449H15.3172Z" fill="#F5841F"/>
</svg>
