<svg width="186" height="187" viewBox="0 0 186 187" fill="none" xmlns="http://www.w3.org/2000/svg">
<path fill-rule="evenodd" clip-rule="evenodd" d="M96.9996 186.499C109.222 185.982 120.835 183.104 131.393 178.31L110.431 136.865C110.405 136.814 110.454 136.916 110.431 136.865C106.244 138.552 101.683 139.493 96.9961 139.892C96.9984 139.948 96.9996 140.005 96.9996 140.062L96.9996 186.499Z" fill="#A660FF"/>
<path fill-rule="evenodd" clip-rule="evenodd" d="M112.393 140.745C107.587 142.724 102.412 143.989 97 144.409L97 141.399C101.927 140.992 106.642 139.841 111.034 138.059L112.393 140.745Z" fill="#7928DF"/>
<path fill-rule="evenodd" clip-rule="evenodd" d="M111.743 184.694C106.953 185.675 102.028 186.287 97 186.5L97 182.494C108.573 181.982 119.572 179.258 129.585 174.735L131.393 178.311C129.357 179.236 127.281 180.089 125.168 180.868C120.836 182.466 116.352 183.751 111.743 184.694Z" fill="#CDA6FF"/>
<path fill-rule="evenodd" clip-rule="evenodd" d="M110 139.067C106.69 140.255 101.597 141.124 98 141.568L99 184.389C109.468 183.707 119.452 181.255 128.656 177.33L110 139.067ZM111 136.565C106.814 138.252 100.186 139.668 95.5 140.067C95.5 140.01 95.5023 140.123 95.5 140.067L97 186.5C97.6685 186.471 98.3352 186.436 99 186.394C109.791 185.706 120.081 183.178 129.561 179.119C130.175 178.856 130.786 178.586 131.393 178.31L111 136.565Z" fill="black"/>
<path fill-rule="evenodd" clip-rule="evenodd" d="M117.486 133.097C117.515 133.148 117.542 133.2 117.569 133.252L138.529 174.691C160.865 162.121 177.488 140.586 183.523 114.963L137.925 106.225C137.87 106.214 137.815 106.202 137.76 106.189C134.576 117.49 127.232 127.046 117.486 133.097Z" fill="#FAE52F"/>
<path fill-rule="evenodd" clip-rule="evenodd" d="M183.523 114.964C177.488 140.587 160.866 162.121 138.529 174.692L136.721 171.116C157.972 159.102 173.795 138.6 179.59 114.21L183.523 114.964Z" fill="#FFF7B1"/>
<path fill-rule="evenodd" clip-rule="evenodd" d="M142.195 107.043C138.726 119.725 130.487 130.436 119.529 137.127L118.17 134.44C128.318 128.175 135.959 118.236 139.239 106.477L142.195 107.043Z" fill="#BDAA00"/>
<path fill-rule="evenodd" clip-rule="evenodd" d="M137.925 106.225C137.87 106.214 137.815 106.202 137.76 106.189C134.576 117.49 127.232 127.046 117.486 133.097C117.515 133.148 117.542 133.2 117.569 133.252L138.529 174.691C139.111 174.364 139.689 174.03 140.264 173.69C161.165 161.327 176.811 141.012 183.042 116.909C183.209 116.263 183.37 115.614 183.523 114.963L137.925 106.225ZM181.074 116.531L139.152 108.497C135.779 118.92 128.98 127.796 120.086 133.797L139.359 171.901C159.721 159.816 174.967 140.015 181.074 116.531Z" fill="black"/>
<path fill-rule="evenodd" clip-rule="evenodd" d="M139.257 98.3337C139.315 98.3422 139.373 98.3521 139.431 98.3632L185.02 107.1C185.666 102.674 186 98.1456 186 93.5395C186 76.6047 181.478 60.7265 173.576 47.0479L134.396 71.9604C134.348 71.9906 134.3 72.0198 134.252 72.0478C137.605 78.4763 139.5 85.7864 139.5 93.5395C139.5 95.1582 139.418 96.7576 139.257 98.3337Z" fill="#FF51CE"/>
<path fill-rule="evenodd" clip-rule="evenodd" d="M185.019 107.1C185.665 102.673 185.999 98.1454 185.999 93.5393C185.999 76.6046 181.477 60.7265 173.575 47.0479L170.195 49.197C177.704 62.2534 181.999 77.3946 181.999 93.5393C181.999 97.8881 181.687 102.164 181.085 106.346L185.019 107.1Z" fill="#FFA0E5"/>
<path fill-rule="evenodd" clip-rule="evenodd" d="M143.693 99.1801C143.896 97.328 144.001 95.4461 144.001 93.5397C144.001 84.8993 141.854 76.7604 138.065 69.6279L135.525 71.2429C139.023 77.9058 141.002 85.4916 141.002 93.5397C141.002 95.2535 140.912 96.9462 140.737 98.6136L143.693 99.1801Z" fill="#C52598"/>
<path fill-rule="evenodd" clip-rule="evenodd" d="M139.431 98.3632L185.02 107.1C185.116 106.441 185.205 105.779 185.288 105.114C185.758 101.322 186 97.4591 186 93.5395C186 77.3202 181.852 62.0702 174.56 48.7934C174.238 48.2077 173.91 47.6258 173.576 47.0479L134.396 71.9604C134.348 71.9906 134.3 72.0198 134.252 72.0478C137.605 78.4763 139.5 85.7864 139.5 93.5395C139.5 95.1582 139.418 96.7576 139.257 98.3337C139.315 98.3422 139.373 98.3521 139.431 98.3632ZM141.399 96.703L183.319 104.737C183.769 101.068 184 97.3314 184 93.5395C184 77.7114 179.965 62.8319 172.868 49.8689L136.846 72.773C139.831 79.0705 141.5 86.1124 141.5 93.5395C141.5 94.6021 141.466 95.657 141.399 96.703Z" fill="black"/>
<path fill-rule="evenodd" clip-rule="evenodd" d="M129.958 65.3027C130.006 65.2694 130.054 65.2369 130.104 65.2054L169.278 40.2968C152.645 16.4882 125.159 0.828637 94 0.5L95.4972 46.9118C95.4991 46.9692 95.4997 47.0263 95.4991 47.0832C109.543 47.8275 121.933 54.8057 129.958 65.3027Z" fill="#4AE47F"/>
<path fill-rule="evenodd" clip-rule="evenodd" d="M165.899 42.4457C150.001 19.7842 123.816 4.87336 94.1292 4.50408L94 0.5C125.159 0.828637 152.645 16.4882 169.278 40.2969L165.899 42.4457Z" fill="#9CFFBE"/>
<path fill-rule="evenodd" clip-rule="evenodd" d="M95.4545 45.5772C110.048 46.3125 122.923 53.5682 131.228 64.491L133.768 62.876C124.902 51.0966 111.055 43.2828 95.3574 42.5684L95.4545 45.5772Z" fill="#1DBC54"/>
<path fill-rule="evenodd" clip-rule="evenodd" d="M130.401 62.6457C122.393 52.953 110.689 46.4215 97.4436 45.2173L96.0671 2.54643C124.948 3.50336 150.422 17.9233 166.421 39.7424L130.401 62.6457ZM129.958 65.3027C130.006 65.2694 130.054 65.2369 130.104 65.2054L169.278 40.2968C168.895 39.7491 168.507 39.2058 168.113 38.6668C151.746 16.279 125.622 1.48239 96.0024 0.542316C95.3367 0.521187 94.6692 0.507058 94 0.5L95.4972 46.9118C95.4991 46.9692 95.4997 47.0263 95.4991 47.0832C109.543 47.8275 121.933 54.8057 129.958 65.3027Z" fill="black"/>
<path fill-rule="evenodd" clip-rule="evenodd" d="M41.7891 15.8592L68.9907 53.4934C69.0237 53.5391 69.0557 53.5853 69.0865 53.632C74.5899 50.324 80.8337 48.1233 87.5103 47.3378C87.5062 47.2822 87.5033 47.2262 87.5015 47.1699L86.0041 0.753906C69.7446 1.96363 54.6492 7.35599 41.7891 15.8592Z" fill="#FFA030"/>
<path fill-rule="evenodd" clip-rule="evenodd" d="M41.7891 15.8594C50.1369 10.3396 59.4267 6.13065 69.3655 3.5257C74.7375 2.11772 80.2991 1.17836 86.004 0.753906L86.1332 4.75803C70.6991 5.93626 56.3659 11.0531 44.1357 19.106L41.7891 15.8594Z" fill="#FFDBB0"/>
<path fill-rule="evenodd" clip-rule="evenodd" d="M87.361 42.8232C79.7607 43.6596 72.6632 46.1667 66.4434 49.9696L68.2067 52.4093C73.9482 48.9376 80.4752 46.6353 87.4581 45.8322L87.361 42.8232Z" fill="#CB7818"/>
<path fill-rule="evenodd" clip-rule="evenodd" d="M69.6546 50.9971C74.4783 48.3422 79.8029 46.4841 85.4498 45.6008L84.0732 2.92791C69.6853 4.32897 56.2805 9.08196 44.6461 16.3973L69.6546 50.9971ZM41.7891 15.8592C42.3458 15.4911 42.9067 15.1288 43.4717 14.7725C55.4228 7.23472 69.2092 2.34424 84.0086 0.923873C84.6718 0.860224 85.337 0.803544 86.0041 0.753906L87.5015 47.1699C87.5033 47.2262 87.5062 47.2822 87.5103 47.3378C80.8337 48.1233 74.5899 50.324 69.0865 53.632C69.0557 53.5853 69.0237 53.5391 68.9907 53.4934L41.7891 15.8592Z" fill="black"/>
<path fill-rule="evenodd" clip-rule="evenodd" d="M88.9999 186.5L88.9999 140.062C88.9999 140.005 89.0011 139.949 89.0035 139.893C65.1932 137.865 46.5 117.886 46.5 93.5396C46.5 79.467 52.7452 66.8539 62.614 58.3229C62.5781 58.2775 62.5429 58.231 62.5086 58.1835L35.3108 20.5547C13.8 37.5969 -2.58504e-06 63.9559 0 93.5396C4.37309e-06 143.586 39.493 184.404 88.9999 186.5Z" fill="#57C4FF"/>
<path fill-rule="evenodd" clip-rule="evenodd" d="M35.3108 20.5547C27.8117 26.4959 21.2498 33.5695 15.8829 41.5173C6.27909 55.7397 0.502391 72.7616 0.0312503 91.1037C0.0104591 91.9131 0 92.7251 0 93.5396C0 143.586 39.4931 184.404 88.9999 186.5V182.494C41.7032 180.401 4.0005 141.375 4.0005 93.5396C4.0005 65.2904 17.1492 40.1137 37.6575 23.8013L35.3108 20.5547Z" fill="#AEE3FF"/>
<path fill-rule="evenodd" clip-rule="evenodd" d="M59.9652 54.6641C48.9728 64.0232 42 77.9664 42 93.539C42 120.372 62.7031 142.368 88.9999 144.409V141.399C64.3614 139.365 44.9992 118.714 44.9992 93.539C44.9992 78.9671 51.4862 65.911 61.7286 57.1037L59.9652 54.6641Z" fill="#3AA7E1"/>
<path fill-rule="evenodd" clip-rule="evenodd" d="M86.9999 141.695C63.0443 138.737 44.5 118.306 44.5 93.5396C44.5 79.524 50.4416 66.8947 59.9362 58.0393L34.9285 23.4405C14.8083 40.1434 2 65.3444 2 93.5396C2 141.805 39.5398 181.299 86.9999 184.389L86.9999 141.695ZM88.9999 140.062C88.9999 140.041 89.0001 140.019 89.0004 139.998C89.001 139.963 89.002 139.928 89.0035 139.893C65.1932 137.865 46.5 117.886 46.5 93.5396C46.5 79.467 52.7452 66.8539 62.614 58.3229C62.5781 58.2775 62.5429 58.231 62.5086 58.1835L35.3108 20.5547C34.7873 20.9695 34.2683 21.3898 33.754 21.8155C13.1364 38.8819 -2.52212e-06 64.6759 0 93.5396C4.31404e-06 142.91 38.4337 183.3 86.9999 186.394C87.6647 186.436 88.3314 186.472 88.9999 186.5L88.9999 140.062Z" fill="black"/>
</svg>
