<svg xmlns="http://www.w3.org/2000/svg" width="20" height="20" viewBox="0 0 20 20" fill="currentColor">
    <path fill-rule="evenodd" clip-rule="evenodd" d="M5.09949 4.15286C5.20006 4.05632 5.33281 4 5.46958 4H18.2377C18.471 4 18.5877 4.28159 18.4228 4.44652L15.9005 6.96877C15.804 7.06532 15.6712 7.12163 15.5304 7.12163H2.76229C2.52897 7.12163 2.41231 6.84004 2.57724 6.67511L5.09949 4.15286ZM5.09949 13.5699C5.19604 13.4733 5.32879 13.417 5.46958 13.417H18.2377C18.471 13.417 18.5877 13.6986 18.4228 13.8635L15.9005 16.3858C15.804 16.4823 15.6712 16.5386 15.5304 16.5386H2.76229C2.52897 16.5386 2.41231 16.257 2.57724 16.0921L5.09949 13.5699ZM15.5304 8.67871C15.6712 8.67871 15.804 8.73503 15.9005 8.83157L18.4228 11.3538C18.5877 11.5188 18.471 11.8003 18.2377 11.8003H5.46958C5.32879 11.8003 5.19604 11.744 5.09949 11.6475L2.57724 9.12523C2.41231 8.9603 2.52897 8.67871 2.76229 8.67871H15.5304Z"/>
</svg>
