<svg xmlns="http://www.w3.org/2000/svg" width="16" height="16" viewBox="0 0 16 16" fill="currentColor">
    <path fill-rule="evenodd" clip-rule="evenodd" d="M4.07959 3.32249C4.16005 3.24525 4.26625 3.2002 4.37567 3.2002H14.5902C14.7768 3.2002 14.8702 3.42547 14.7382 3.55741L12.7204 5.57521C12.6432 5.65245 12.537 5.6975 12.4243 5.6975H2.20983C2.02318 5.6975 1.92985 5.47223 2.06179 5.34028L4.07959 3.32249ZM4.07959 10.8561C4.15683 10.7788 4.26303 10.7338 4.37567 10.7338H14.5902C14.7768 10.7338 14.8702 10.9591 14.7382 11.091L12.7204 13.1088C12.6432 13.186 12.537 13.2311 12.4243 13.2311H2.20983C2.02318 13.2311 1.92985 13.0058 2.06179 12.8739L4.07959 10.8561ZM12.4243 6.94316C12.537 6.94316 12.6432 6.98822 12.7204 7.06545L14.7382 9.08325C14.8702 9.2152 14.7768 9.44047 14.5902 9.44047H4.37567C4.26303 9.44047 4.15683 9.39542 4.07959 9.31818L2.06179 7.30038C1.92985 7.16844 2.02318 6.94316 2.20983 6.94316H12.4243Z"/>
</svg>
