<svg width="41" height="40" viewBox="0 0 41 40" fill="none" xmlns="http://www.w3.org/2000/svg">
<g clip-path="url(#clip0_1337_3097)">
<path d="M20.2173 0.0390625H20.2499C31.2622 0.0390625 40.1928 8.7216 40.1928 19.428V20.5073C40.1928 31.2137 31.2622 39.8962 20.2499 39.8962H20.2173C9.20503 39.8962 0.274414 31.2137 0.274414 20.5073V19.428C0.274414 8.7216 9.20503 0.0390625 20.2173 0.0390625Z" fill="#232323"/>
<path d="M28.7642 15.0397C28.6989 15.1111 28.6173 15.1667 28.5275 15.1984C28.4377 15.2381 28.3397 15.254 28.2418 15.254H9.75199C9.09893 15.254 8.76423 14.4603 9.22138 13.9842L12.2581 10.8492C12.3234 10.7778 12.405 10.7223 12.503 10.6826C12.5928 10.6429 12.6908 10.627 12.7887 10.627H31.352C32.0132 10.627 32.3397 11.4286 31.8744 11.9048L28.7642 15.0397ZM28.7642 29.0556C28.6255 29.1905 28.4377 29.2699 28.2418 29.2699H9.75199C9.09893 29.2699 8.76423 28.4921 9.22138 28.0318L12.2581 24.9683C12.3234 24.8969 12.4132 24.8413 12.503 24.8096C12.5928 24.7699 12.6908 24.754 12.7887 24.754H31.352C32.0132 24.754 32.3397 25.5397 31.8744 26L28.7642 29.0556ZM28.7642 17.9048C28.6255 17.7699 28.4377 17.6905 28.2418 17.6905H9.75199C9.09893 17.6905 8.76423 18.4683 9.22138 18.9286L12.2581 21.9921C12.3234 22.0635 12.4132 22.1191 12.503 22.1508C12.5928 22.1905 12.6908 22.2064 12.7887 22.2064H31.352C32.0132 22.2064 32.3397 21.4207 31.8744 20.9603L28.7642 17.9048Z" fill="url(#paint0_linear_1337_3097)"/>
</g>
<defs>
<linearGradient id="paint0_linear_1337_3097" x1="10.4217" y1="29.5025" x2="30.0664" y2="9.83035" gradientUnits="userSpaceOnUse">
<stop stop-color="#CF41E8"/>
<stop offset="1" stop-color="#10F2B0"/>
</linearGradient>
<clipPath id="clip0_1337_3097">
<rect width="40" height="40" fill="white" transform="translate(0.25)"/>
</clipPath>
</defs>
</svg>
