<svg xmlns="http://www.w3.org/2000/svg" width="21" height="24" viewBox="0 0 21 24" fill="none">
    <path fill-rule="evenodd" clip-rule="evenodd" d="M9.72306 23.6577C9.97289 23.8127 10.3748 24 10.4997 24L10.4998 22.9435C10.4133 22.9015 10.3273 22.8547 10.2641 22.8157C8.71498 21.8342 7.03275 20.3508 5.69669 18.7756L5.69552 18.7743C2.89531 15.4849 1.30554 11.5787 1.03143 7.31521C0.990209 6.67255 1.0149 5.58208 1.04863 4.59335C5.53172 4.30765 9.42126 2.18893 10.4993 1.24723V0.000284628L10.2444 0.192339C8.85952 1.22883 7.57236 1.92874 5.98649 2.5111C4.34631 3.11483 2.45087 3.50485 0.658621 3.62239L0.0722198 3.65979C0.0287123 4.77993 -0.0352345 6.46787 0.0231857 7.37835C0.311032 11.8556 1.9838 15.9642 4.92201 19.4156C6.31779 21.0612 8.07745 22.6159 9.72306 23.6577ZM10.2552 2.82129C10.3476 2.7465 10.4998 2.64611 10.4998 2.64611V21.4243C9.52354 20.8254 7.6966 19.4292 6.04124 17.4878L6.53212 17.4658C7.81386 17.4177 8.63938 17.1079 9.33998 16.4133C9.98628 15.7775 10.1629 15.1252 10.1629 14.1955C10.1629 12.6301 9.42688 11.6422 7.40109 10.8515C6.13023 10.3599 5.73376 9.91115 6.0379 9.3181C6.28773 8.82123 6.74394 8.7304 8.94352 8.72506L9.98628 8.71971L10.0026 7.68856C10.0134 7.12757 10.0026 6.64138 9.98085 6.61466C9.92111 6.53452 6.59187 6.61466 6.18454 6.70549C5.25039 6.9192 4.48461 7.40539 4.02297 8.07858C3.64823 8.62889 3.51245 9.07233 3.50702 9.76155C3.50159 11.2094 4.42487 12.2459 6.3529 12.9565C7.41196 13.3465 7.81929 13.7152 7.81929 14.2762C7.81929 14.9654 7.23273 15.3341 6.22255 15.2753C5.57626 15.2432 5.02772 15.0616 4.34884 14.6715L3.93595 14.4319C3.83886 14.2489 3.74555 14.0634 3.65649 13.8755C3.0102 12.5024 2.53226 10.6591 2.34761 8.86396C2.28244 8.22283 2.29873 5.60487 2.3639 5.53542C2.3639 5.53542 2.68976 5.48199 3.04278 5.45528C4.99797 5.31102 7.07806 4.71263 8.70738 3.83108C9.16902 3.57462 9.9511 3.06706 10.2552 2.82129Z" fill="white"/>
    <path fill-rule="evenodd" clip-rule="evenodd" d="M20.3411 3.62271L20.9275 3.66011C20.971 4.78024 21.035 6.46819 20.9766 7.37867C20.6887 11.8559 19.0159 15.9645 16.0777 19.4159C14.682 21.0615 12.9223 22.6162 11.2767 23.6581C11.0269 23.813 10.625 23.9999 10.5 24L10.5001 22.9435C10.5865 22.9015 10.6723 22.8549 10.7353 22.8161C12.2845 21.8345 13.9667 20.3511 15.3027 18.7759L15.3039 18.7746C18.1041 15.4853 19.6939 11.5789 19.968 7.31552C20.0092 6.67286 19.9845 5.5824 19.9508 4.59367C14.9804 4.32241 11.7149 2.08087 10.6532 1.35214C10.5957 1.31262 10.5446 1.27755 10.5 1.24748V0L10.7553 0.192653C12.1402 1.22915 13.4274 1.92905 15.0133 2.51141C16.6534 3.11514 18.5489 3.50517 20.3411 3.62271ZM17.3433 13.8755C17.9896 12.5024 18.4675 10.6591 18.6522 8.86396C18.7173 8.22283 18.701 5.60487 18.6359 5.53542C18.6359 5.53542 18.31 5.48199 17.957 5.45528C16.0018 5.31102 13.9217 4.71263 12.2924 3.83108C11.8307 3.57462 11.0487 3.06706 10.7445 2.82129C10.6522 2.7465 10.5 2.64611 10.5 2.64611V21.4243C12.0073 20.4995 15.5428 17.6742 17.3433 13.8755ZM10.8368 8.71162V6.5513H14.2049C15.3838 6.5513 17.7414 7.24925 17.7414 10.041C17.7414 13.5308 13.5313 13.6139 13.0261 13.6139V17.1867H10.8368V11.3705H13.6997C14.233 11.3705 15.2996 11.1046 15.2996 10.041C15.2996 8.97751 14.233 8.71162 13.6997 8.71162H10.8368Z" fill="white" fill-opacity="0.5"/>
</svg>
