<svg xmlns="http://www.w3.org/2000/svg" width="16" height="16" viewBox="0 0 16 16" fill="none">
    <g clip-path="url(#clip0_453_2049)">
        <path d="M8 16C12.4334 16 16 12.4334 16 8C16 3.56664 12.4334 0 8 0C3.56664 0 0 3.56664 0 8C0 12.4334 3.56664 16 8 16Z" fill="#2775CA"/>
        <path d="M10.1991 9.26641C10.1991 8.09977 9.49906 7.69977 8.09906 7.53313C7.09906 7.39977 6.89906 7.13313 6.89906 6.66641C6.89906 6.19969 7.23242 5.89977 7.89906 5.89977C8.49906 5.89977 8.83242 6.09977 8.99906 6.59977C9.03242 6.69977 9.13242 6.76641 9.23242 6.76641H9.7657C9.89906 6.76641 9.99906 6.66641 9.99906 6.53313V6.49977C9.8657 5.76641 9.2657 5.19977 8.49906 5.13313V4.33313C8.49906 4.19977 8.39906 4.09977 8.23242 4.06641H7.73242C7.59906 4.06641 7.49906 4.16641 7.4657 4.33313V5.09977C6.4657 5.23313 5.83242 5.89977 5.83242 6.73313C5.83242 7.83313 6.49906 8.26641 7.89906 8.43313C8.83242 8.59977 9.13242 8.79977 9.13242 9.33313C9.13242 9.86649 8.6657 10.2331 8.03242 10.2331C7.1657 10.2331 6.8657 9.86641 6.7657 9.36641C6.73242 9.23313 6.63242 9.16641 6.53242 9.16641H5.9657C5.83242 9.16641 5.73242 9.26641 5.73242 9.39977V9.43313C5.8657 10.2664 6.39906 10.8664 7.49906 11.0331V11.8331C7.49906 11.9664 7.59906 12.0664 7.7657 12.0998H8.2657C8.39906 12.0998 8.49906 11.9998 8.53242 11.8331V11.0331C9.53242 10.8664 10.1991 10.1664 10.1991 9.26641Z" fill="white"/>
        <path d="M6.30065 12.7673C3.70065 11.834 2.36729 8.93398 3.33401 6.36726C3.83401 4.96726 4.93401 3.90062 6.30065 3.40062C6.43401 3.33398 6.50065 3.23398 6.50065 3.06726V2.60062C6.50065 2.46726 6.43401 2.36726 6.30065 2.33398C6.26729 2.33398 6.20065 2.33398 6.16729 2.36726C3.00065 3.36726 1.26729 6.73398 2.26729 9.90062C2.86729 11.7673 4.30065 13.2006 6.16729 13.8006C6.30065 13.8673 6.43401 13.8006 6.46729 13.6673C6.50065 13.634 6.50065 13.6006 6.50065 13.534V13.0673C6.50065 12.9673 6.40065 12.834 6.30065 12.7673ZM9.83401 2.36726C9.70065 2.30062 9.56729 2.36726 9.53401 2.50062C9.50065 2.53398 9.50065 2.56726 9.50065 2.63398V3.10062C9.50065 3.23398 9.60065 3.36726 9.70065 3.43398C12.3007 4.36726 13.634 7.26726 12.6673 9.83398C12.1673 11.234 11.0673 12.3006 9.70065 12.8006C9.56729 12.8673 9.50065 12.9673 9.50065 13.134V13.6006C9.50065 13.734 9.56729 13.834 9.70065 13.8673C9.73401 13.8673 9.80065 13.8673 9.83401 13.834C13.0007 12.834 14.734 9.46726 13.734 6.30062C13.134 4.40062 11.6673 2.96726 9.83401 2.36726Z" fill="white"/>
    </g>
    <defs>
        <clipPath id="clip0_453_2049">
            <rect width="16" height="16" fill="white"/>
        </clipPath>
    </defs>
</svg>
