<svg xmlns="http://www.w3.org/2000/svg" width="16" height="16" viewBox="0 0 16 16" fill="none">
    <g clip-path="url(#clip0_453_2049)">
        <path d="M8 16C12.4334 16 16 12.4334 16 8C16 3.56664 12.4334 0 8 0C3.56664 0 0 3.56664 0 8C0 12.4334 3.56664 16 8 16Z"
              fill="#2775CA"/>
        <path d="M10.1991 9.26641C10.1991 8.09977 9.49906 7.69977 8.09906 7.53313C7.09906 7.39977 6.89906 7.13313 6.89906 6.66641C6.89906 6.19969 7.23242 5.89977 7.89906 5.89977C8.49906 5.89977 8.83242 6.09977 8.99906 6.59977C9.03242 6.69977 9.13242 6.76641 9.23242 6.76641H9.7657C9.89906 6.76641 9.99906 6.66641 9.99906 6.53313V6.49977C9.8657 5.76641 9.2657 5.19977 8.49906 5.13313V4.33313C8.49906 4.19977 8.39906 4.09977 8.23242 4.06641H7.73242C7.59906 4.06641 7.49906 4.16641 7.4657 4.33313V5.09977C6.4657 5.23313 5.83242 5.89977 5.83242 6.73313C5.83242 7.83313 6.49906 8.26641 7.89906 8.43313C8.83242 8.59977 9.13242 8.79977 9.13242 9.33313C9.13242 9.86649 8.6657 10.2331 8.03242 10.2331C7.1657 10.2331 6.8657 9.86641 6.7657 9.36641C6.73242 9.23313 6.63242 9.16641 6.53242 9.16641H5.9657C5.83242 9.16641 5.73242 9.26641 5.73242 9.39977V9.43313C5.8657 10.2664 6.39906 10.8664 7.49906 11.0331V11.8331C7.49906 11.9664 7.59906 12.0664 7.7657 12.0998H8.2657C8.39906 12.0998 8.49906 11.9998 8.53242 11.8331V11.0331C9.53242 10.8664 10.1991 10.1664 10.1991 9.26641Z"
              fill="white"/>
        <path d="M6.30065 12.7668C3.70065 11.8335 2.36729 8.9335 3.33401 6.36678C3.83401 4.96678 4.93401 3.90014 6.30065 3.40014C6.43401 3.3335 6.50065 3.2335 6.50065 3.06678V2.60014C6.50065 2.46678 6.43401 2.36678 6.30065 2.3335C6.26729 2.3335 6.20065 2.3335 6.16729 2.36678C3.00065 3.36678 1.26729 6.7335 2.26729 9.90014C2.86729 11.7668 4.30065 13.2001 6.16729 13.8001C6.30065 13.8668 6.43401 13.8001 6.46729 13.6668C6.50065 13.6335 6.50065 13.6001 6.50065 13.5335V13.0668C6.50065 12.9668 6.40065 12.8335 6.30065 12.7668ZM9.83401 2.36678C9.70065 2.30014 9.56729 2.36678 9.53401 2.50014C9.50065 2.5335 9.50065 2.56678 9.50065 2.6335V3.10014C9.50065 3.2335 9.60065 3.36678 9.70065 3.4335C12.3007 4.36678 13.634 7.26678 12.6673 9.8335C12.1673 11.2335 11.0673 12.3001 9.70065 12.8001C9.56729 12.8668 9.50065 12.9668 9.50065 13.1335V13.6001C9.50065 13.7335 9.56729 13.8335 9.70065 13.8668C9.73401 13.8668 9.80065 13.8668 9.83401 13.8335C13.0007 12.8335 14.734 9.46678 13.734 6.30014C13.134 4.40014 11.6673 2.96678 9.83401 2.36678Z"
              fill="white"/>
    </g>
    <defs>
        <clipPath id="clip0_453_2049">
            <rect width="16" height="16" fill="white"/>
        </clipPath>
    </defs>
</svg>
