<svg xmlns="http://www.w3.org/2000/svg" width="20" height="20" viewBox="0 0 20 20" fill="none">
    <path d="M10 20.002C15.5228 20.002 20 15.5248 20 10.002C20 4.47911 15.5228 0.00195312 10 0.00195312C4.47715 0.00195312 0 4.47911 0 10.002C0 15.5248 4.47715 20.002 10 20.002Z" fill="#26A17B"/>
    <path fill-rule="evenodd" clip-rule="evenodd" d="M11.2017 10.8642V10.863C11.133 10.868 10.7786 10.8892 9.98799 10.8892C9.35674 10.8892 8.91236 10.8705 8.75611 10.863V10.8648C6.32611 10.758 4.51236 10.3348 4.51236 9.82859C4.51236 9.32297 6.32611 8.89984 8.75611 8.79109V10.4436C8.91486 10.4548 9.36986 10.4817 9.99861 10.4817C10.753 10.4817 11.1311 10.4505 11.2017 10.4442V8.79234C13.6267 8.90047 15.4361 9.32359 15.4361 9.82859C15.4361 10.3348 13.6267 10.7567 11.2017 10.8642ZM11.2017 8.62047V7.14172H14.5855V4.88672H5.37236V7.14172H8.75611V8.61984C6.00611 8.74609 3.93799 9.29109 3.93799 9.94359C3.93799 10.5961 6.00611 11.1405 8.75611 11.2673V16.0061H11.2017V11.2661C13.9474 11.1398 16.0105 10.5955 16.0105 9.94359C16.0105 9.29172 13.9474 8.74734 11.2017 8.62047Z" fill="white"/>
</svg>
