<svg xmlns="http://www.w3.org/2000/svg" width="16" height="16" viewBox="0 0 16 16" fill="none">
    <path d="M8 16.002C12.4183 16.002 16 12.4202 16 8.00195C16 3.58367 12.4183 0.00195312 8 0.00195312C3.58172 0.00195312 0 3.58367 0 8.00195C0 12.4202 3.58172 16.002 8 16.002Z"
          fill="#26A17B"/>
    <path fill-rule="evenodd" clip-rule="evenodd"
          d="M8.96139 8.69216V8.69116C8.90639 8.69516 8.62289 8.71216 7.99039 8.71216C7.48539 8.71216 7.12989 8.69716 7.00489 8.69116V8.69266C5.06089 8.60716 3.60989 8.26866 3.60989 7.86366C3.60989 7.45916 5.06089 7.12066 7.00489 7.03366V8.35566C7.13189 8.36466 7.49589 8.38616 7.99889 8.38616C8.60239 8.38616 8.90489 8.36116 8.96139 8.35616V7.03466C10.9014 7.12116 12.3489 7.45966 12.3489 7.86366C12.3489 8.26866 10.9014 8.60616 8.96139 8.69216ZM8.96139 6.89716V5.71416H11.6684V3.91016H4.29789V5.71416H7.00489V6.89666C4.80489 6.99766 3.15039 7.43366 3.15039 7.95566C3.15039 8.47766 4.80489 8.91316 7.00489 9.01466V12.8057H8.96139V9.01366C11.1579 8.91266 12.8084 8.47716 12.8084 7.95566C12.8084 7.43416 11.1579 6.99866 8.96139 6.89716Z"
          fill="white"/>
</svg>
