<svg xmlns="http://www.w3.org/2000/svg" width="32" height="32" viewBox="0 0 32 32" fill="none">
    <rect width="32" height="32" rx="6" fill="#3396FF"/>
    <path d="M10.0944 12.395C13.356 9.20166 18.644 9.20166 21.9056 12.395L22.2981 12.7793C22.4612 12.939 22.4612 13.1979 22.2981 13.3576L20.9554 14.6722C20.8738 14.7521 20.7416 14.7521 20.66 14.6722L20.1199 14.1434C17.8445 11.9156 14.1555 11.9156 11.8801 14.1434L11.3016 14.7097C11.2201 14.7896 11.0879 14.7896 11.0064 14.7097L9.66359 13.3951C9.50047 13.2354 9.50047 12.9765 9.66359 12.8168L10.0944 12.395ZM24.6826 15.114L25.8777 16.284C26.0408 16.4437 26.0408 16.7025 25.8777 16.8622L20.489 22.1383C20.3259 22.298 20.0615 22.298 19.8984 22.1383L16.0738 18.3937C16.0331 18.3538 15.967 18.3538 15.9262 18.3937L12.1017 22.1383C11.9386 22.298 11.6742 22.298 11.5111 22.1383L6.12231 16.8622C5.95923 16.7025 5.95923 16.4436 6.12231 16.284L7.31739 15.1139C7.48047 14.9542 7.74487 14.9542 7.90795 15.1139L11.7326 18.8585C11.7733 18.8984 11.8394 18.8984 11.8802 18.8585L15.7046 15.1139C15.8677 14.9542 16.1321 14.9542 16.2952 15.1139L20.1198 18.8585C20.1606 18.8984 20.2267 18.8984 20.2675 18.8585L24.092 15.114C24.2551 14.9543 24.5195 14.9543 24.6826 15.114Z" fill="white"/>
</svg>
