<svg width="264" height="114" viewBox="0 0 264 114" fill="none" xmlns="http://www.w3.org/2000/svg">
<path d="M88.9098 24.4286H96.7443V32.5714H86.2982V111.286H83.6867V114H81.0752V111.286H78.4636V108.571H73.2406V105.857H68.0175V103.143H62.7944V100.429H54.9598V97.7143H52.3483H15.7869V92.2857H18.3984V89.5714H21.0099V86.8571H23.6215V84.1429H26.233V67.8571H21.0099V65.1429H7.95227V67.8571H0.117676V62.4286H2.72921V59.7143H5.34074V57H7.95227V54.2857H10.5638V51.5714H13.1753V48.8571H15.7869V46.1429H18.3984V43.4286H21.0099V40.7143H23.6215V35.2857H26.233V24.4286H23.6215V21.7143H18.3984V19H13.1753V16.2857H10.5638V13.5714H13.1753V10.8571H28.8445V13.5714H44.5137V10.8571H41.9022V8.14286H36.6791V5.42857H34.0676V2.71429H44.5137V5.42857H52.3483V8.14286H62.7944V10.8571H70.629V13.5714H78.4636V16.2857H83.6867V19H86.2982V21.7143H88.9098V24.4286Z" fill="#FFAE00"/>
<path d="M83.6867 97.7143V111.286H81.0751V108.571H78.4636V105.857H73.2405V103.143H68.0175V100.429H62.7944V97.7143H49.7368V95H18.3984V92.2857H21.0099V89.5714H23.6214V86.8571H26.233V84.1429H28.8445V67.8571H26.233V65.1429H21.0099V62.4286H7.95225V65.1429H2.72919V62.4286H5.34072V59.7143H7.95225V57H10.5638V54.2857H13.1753V51.5714H15.7868V48.8571H18.3984V46.1429H21.0099V43.4286H23.6214V40.7143H26.233V35.2857H28.8445V24.4286H26.233V21.7143H23.6214V19H18.3984V16.2857H13.1753V13.5714H28.8445V16.2857H44.5137V13.5714H47.1252V10.8571H44.5137V8.14286H41.9022V5.42857H44.5137V8.14286H52.3483V10.8571H62.7944V13.5714H60.1829V16.2857H62.7944V19H57.5714V16.2857H54.9598V21.7143H57.5714V27.1429H47.1252V24.4286H39.2906V21.7143H34.0676V24.4286H36.6791V27.1429H39.2906V29.8571H44.5137V32.5714H47.1252V35.2857H44.5137V38H41.9022V40.7143H39.2906V43.4286H36.6791V46.1429H31.456V48.8571H26.233V51.5714H21.0099V54.2857H34.0676V51.5714H39.2906V54.2857H41.9022V59.7143H47.1252V70.5714H39.2906V76H36.6791V78.7143H34.0676V84.1429H36.6791V81.4286H44.5137V78.7143H52.3483V70.5714H83.6867V97.7143Z" fill="#FFEF00"/>
<path fill-rule="evenodd" clip-rule="evenodd" d="M70.629 16.2857H78.4636V21.7143H68.0175V16.2857H65.406V13.5714H70.629V16.2857ZM57.5714 86.8571V92.2857H62.7944V95H65.406V97.7143H68.0175V92.2857H73.2406V86.8571H57.5714ZM62.7944 19H57.5714V16.2857H54.9598V21.7143H62.7944V19ZM44.5137 19V21.7143H47.1252V24.4286H49.7368V27.1429H52.3483V29.8571H54.9598V35.2857H60.1829V27.1429H54.9598V24.4286H49.7368V21.7143H47.1252V19H44.5137ZM60.1829 40.7143H52.3483V43.4286H60.1829V40.7143ZM49.7368 43.4286H41.9022V46.1429H44.5137V48.8571H47.1252V51.5714H49.7368V54.2857H47.1252V57H28.8445V59.7143H23.6215V62.4286H28.8445V59.7143H39.2907V62.4286H44.5137V67.8571H41.9022V70.5714H39.2907V73.2857H41.9022V76H44.5137V73.2857H60.1829V46.1429H49.7368V43.4286Z" fill="#FF6D00"/>
<path d="M177.702 16.2857V21.7143V35.2857H175.09V111.286H177.702V114H180.313V111.286H182.925V108.571H188.148V105.857H193.371V103.143H198.594V97.7143H216.875H245.602V92.2857H242.99V89.5714H240.379V86.8571H237.767V84.1429H235.156V67.8571H240.379V65.1429H253.436V67.8571H261.271V62.4286H258.659V59.7143H256.048V57H253.436V54.2857H250.825V51.5714H248.213V48.8571H245.602V46.1429H242.99V43.4286H240.379V40.7143H237.767V35.2857H235.156V24.4286H237.767V21.7143H242.99V19H248.213V16.2857H250.825V13.5714H248.213V10.8571H232.544V13.5714H219.486V8.14286H222.098V5.42857H224.709V2.71429H227.321V0H222.098V2.71429H211.652V5.42857H203.817V8.14286H198.594V10.8571H190.76V13.5714H182.925V16.2857H177.702Z" fill="#FFAE00"/>
<path fill-rule="evenodd" clip-rule="evenodd" d="M198.594 13.5714H195.983V16.2857H201.206V13.5714H206.429V19H216.875V21.7143H219.486V24.4286H222.098H224.709V38H227.321V40.7143H229.932V43.4286H232.544V46.1429H235.156V48.8571H229.932V46.1429H222.098V48.8571H224.709V51.5714H227.321V54.2857H229.932V57H235.156V59.7143H227.321V62.4286H219.486V67.8571H222.098V70.5714H224.709V78.7143H227.321V95H242.99V92.2857H240.379V89.5714H237.767V86.8571H235.156V84.1429H232.544V67.8571H235.156V65.1429H240.379V62.4286H253.436V65.1429H258.659V62.4286H256.048V59.7143H253.436V57H250.825V54.2857H248.213V51.5714H245.602V48.8571H242.99V46.1429H240.379V43.4286H237.767V40.7143H235.156V35.2857H232.544V24.4286H235.156V21.7143H237.767V19H242.99V16.2857H248.213V13.5714H232.544V16.2857H216.875V8.14286H219.486V5.42857H211.652V8.14286H203.817V10.8571H198.594V13.5714ZM177.702 100.429V111.286H180.313V108.571H182.925V105.857H188.148V103.143H193.371V97.7143H188.148V100.429H185.536V103.143H182.925V100.429H177.702Z" fill="#FFEF00"/>
<path fill-rule="evenodd" clip-rule="evenodd" d="M180.313 24.4286V19H182.925V16.2857H190.76V13.5714H195.983V16.2857H201.206V13.5714H206.429V40.7143H193.371V24.4286H180.313ZM182.925 89.5714V103.143H185.536V100.429H188.148V97.7143H193.371V95H190.76V92.2857H188.148V89.5714H182.925ZM227.321 21.7143H224.709V24.4286H216.875V62.4286H227.321V59.7143H235.156V57H229.933V54.2857H227.321V51.5714H224.709V48.8571H222.098V46.1429H229.933V48.8571H235.156V51.5714H237.767V48.8571H235.156V46.1429H232.544V43.4286H229.933V40.7143H227.321V38H224.709V24.4286H227.321V21.7143Z" fill="#FF6D00"/>
<path d="M60.1829 21.7143V19H83.6867V21.7143H86.2982V24.4286H88.9097V27.1429H91.5213V29.8571H94.1328V24.4286H96.7443V21.7143H99.3559V19H120.248V21.7143H122.86V27.1429H125.471V24.4286H128.083V21.7143H130.694V19H146.363V21.7143H148.975V24.4286H151.587V27.1429H154.198V24.4286H156.81V21.7143H159.421V19H180.313V21.7143H185.536V19H193.371V21.7143H195.983V24.4286H198.594V29.8571H201.206V32.5714H203.817V21.7143H206.429V19H216.875V21.7143H219.486V67.8571H222.098V70.5714H224.709V76H222.098V81.4286H224.709V84.1429H227.321V95H224.709V97.7143H222.098V100.429H206.429V97.7143H203.817V100.429H193.371V97.7143H190.759V95H188.148V92.2857H185.536V97.7143H182.925V100.429H177.702V97.7143H175.09V100.429H156.81V97.7143H154.198V95H148.975V97.7143H146.363V100.429H141.14V97.7143H138.529V95H133.306V97.7143H130.694V100.429H125.471V97.7143H122.86V95H120.248V97.7143H117.637V100.429H112.414V97.7143H107.19V100.429H94.1328V97.7143H88.9097V100.429H73.2405V97.7143H70.629V92.2857H73.2405V89.5714H60.1829V97.7143H57.5714V100.429H52.3483V97.7143H49.7368V70.5714H52.3483V67.8571H57.5714V21.7143H60.1829Z" fill="black"/>
<path fill-rule="evenodd" clip-rule="evenodd" d="M60.1829 67.8571V21.7143H83.6867V24.4286H86.2982V27.1429H88.9098V29.8571H91.5213V54.2857H88.9098V57H86.2982V59.7143H83.6867V62.4286H75.8521V65.1429H65.406V67.8571H60.1829ZM96.7444 57V24.4286H99.3559V21.7143H120.248V29.8571H104.579V38H120.248V46.1429H104.579V51.5714H120.248V59.7143H99.3559V57H96.7444ZM125.471 27.1429V57H128.083V59.7143H148.975V57H151.587V40.7143H148.975V38H138.529V46.1429H143.752V51.5714H133.306V32.5714H151.587V27.1429H148.975V24.4286H146.363V21.7143H130.694V24.4286H128.083V27.1429H125.471ZM159.421 24.4286V21.7143H180.313V29.8571H164.644V38H180.313V46.1429H164.644V51.5714H180.313V59.7143H159.421V57H156.81V24.4286H159.421ZM185.536 21.7143V62.4286H195.983V46.1429H198.594V51.5714H201.206V57H203.817V62.4286H206.429V65.1429H209.04V67.8571H216.875V21.7143H206.429V40.7143H203.817V38H201.206V32.5714H198.594V29.8571H195.983V24.4286H193.371V21.7143H185.536ZM70.6291 29.8571V54.2857H81.0752V29.8571H70.6291Z" fill="#29B6F6"/>
<path d="M88.9098 29.8571H91.5213V43.4286H88.9098V29.8571H86.2982V27.1429H83.6867V24.4286H60.1829V21.7143H83.6867V24.4286H86.2982V27.1429H88.9098V29.8571Z" fill="#ACE5FF"/>
<path d="M117.637 43.4286H120.248V38H104.579V40.7143H117.637V43.4286Z" fill="#ACE5FF"/>
<path d="M104.579 27.1429V29.8571H120.248V21.7143H99.3559V24.4286H117.637V27.1429H104.579Z" fill="#ACE5FF"/>
<path d="M128.083 27.1429V24.4286H130.694V21.7143H146.363V24.4286H148.975V27.1429H151.587V32.5714H133.306V29.8571H148.975V27.1429H146.363V24.4286H130.694V27.1429H128.083Z" fill="#ACE5FF"/>
<path d="M138.529 38H148.975V40.7143H151.587V43.4286H148.975V40.7143H138.529V38Z" fill="#ACE5FF"/>
<path d="M159.421 21.7143V24.4286H177.702V29.8571H180.313V21.7143H159.421Z" fill="#ACE5FF"/>
<path d="M180.313 38H164.644V40.7143H177.702V43.4286H180.313V38Z" fill="#ACE5FF"/>
<path d="M185.536 21.7143H193.371V24.4286H195.983V29.8571H198.594V32.5714H201.206V38H203.817V40.7143H201.206V38H198.594V32.5714H195.983V29.8571H193.371V24.4286H185.536V21.7143Z" fill="#ACE5FF"/>
<path d="M216.875 21.7143H206.429V24.4286H214.263V43.4286H216.875V21.7143Z" fill="#ACE5FF"/>
<path d="M65.406 67.8571H60.1829V43.4286H70.6291V54.2857H81.0752V43.4286H91.5213V54.2857H88.9098V57H86.2982V59.7143H83.6867V62.4286H75.8521V65.1429H65.406V67.8571Z" fill="#0079D1"/>
<path d="M120.248 43.4286H96.7444V57H99.3559V59.7143H120.248V51.5714H104.579V46.1429H120.248V43.4286Z" fill="#0079D1"/>
<path d="M133.306 43.4286H125.471V57H128.083V59.7143H148.975V57H151.587V43.4286H138.529V46.1429H143.752V51.5714H133.306V43.4286Z" fill="#0079D1"/>
<path d="M180.313 43.4286H156.81V57H159.421V59.7143H180.313V51.5714H164.644V46.1429H180.313V43.4286Z" fill="#0079D1"/>
<path d="M216.875 43.4286H185.536V62.4286H195.983V46.1429H198.594V51.5714H201.206V57H203.817V62.4286H206.429V65.1429H209.04V67.8571H216.875V43.4286Z" fill="#0079D1"/>
<path d="M75.8521 65.1429H65.406V62.4286H75.8521V59.7143H83.6867V57H86.2983V54.2857H88.9098V46.1429H81.0752V43.4286H91.5213V54.2857H88.9098V57H86.2983V59.7143H83.6867V62.4286H75.8521V65.1429Z" fill="#1C93E9"/>
<path d="M70.6291 46.1429V43.4286H68.0175V46.1429H70.6291Z" fill="#1C93E9"/>
<path d="M104.579 43.4286H120.248V46.1429H104.579V43.4286Z" fill="#1C93E9"/>
<path d="M120.248 51.5714H104.579V54.2857H117.637V57H99.3559V59.7143H120.248V51.5714Z" fill="#1C93E9"/>
<path d="M128.083 59.7143V57H148.975V46.1429H138.529V43.4286H151.587V57H148.975V59.7143H128.083Z" fill="#1C93E9"/>
<path d="M180.313 43.4286H164.644V46.1429H180.313V43.4286Z" fill="#1C93E9"/>
<path d="M180.313 51.5714H164.644V54.2857H177.702V59.7143H180.313V51.5714Z" fill="#1C93E9"/>
<path d="M198.594 46.1429H201.206V51.5714H203.817V57H206.429V62.4286H209.04V65.1429H214.263V43.4286H216.875V67.8571H209.04V65.1429H206.429V62.4286H203.817V57H201.206V51.5714H198.594V46.1429Z" fill="#1C93E9"/>
<path fill-rule="evenodd" clip-rule="evenodd" d="M52.3483 70.5714V97.7143H57.5714V86.8571H70.6291V81.4286H57.5714V76H70.6291V70.5714H52.3483ZM73.2406 70.5714H88.9098V76H83.6867V92.2857H88.9098V97.7143H73.2406V92.2857H78.4636V76H73.2406V70.5714ZM91.5213 73.2857H94.1328V70.5714H107.191V73.2857H109.802V78.7143H104.579V76H96.7444V92.2857H104.579V86.8571H99.3559V81.4286H107.191V84.1429H109.802V95H107.191V97.7143H94.1328V95H91.5213V73.2857ZM112.414 70.5714H117.637V81.4286H125.471V70.5714H130.694V97.7143H125.471V86.8571H117.637V97.7143H112.414V70.5714ZM154.198 70.5714H133.306V76H141.14V97.7143H146.363V76H154.198V70.5714ZM162.033 76H175.09V70.5714H156.81V97.7143H175.09V92.2857H162.033V86.8571H175.09V81.4286H162.033V76ZM182.925 97.7143H177.702V70.5714H195.983V76H182.925V84.1429H195.983V86.8571H193.371V89.5714H195.983V92.2857H198.594V95H201.206V97.7143H193.371V95H190.76V92.2857H188.148V89.5714H182.925V97.7143ZM195.983 84.1429H201.206V76H195.983V84.1429ZM209.04 92.2857V89.5714H203.817V95H206.429V97.7143H222.098V95H224.709V84.1429H222.098V81.4286H209.04V76H222.098V70.5714H206.429V73.2857H203.817V84.1429H206.429V86.8571H219.486V92.2857H209.04Z" fill="#FF6B9D"/>
<path d="M54.9599 95V70.5714H52.3483V97.7143H57.5714V95H54.9599Z" fill="#D6356C"/>
<path d="M73.2406 76V73.2857H78.4636V76H73.2406Z" fill="#D6356C"/>
<path d="M83.6867 76V73.2857H88.9098V76H83.6867Z" fill="#D6356C"/>
<path d="M88.9098 95H73.2406V97.7143H88.9098V95Z" fill="#D6356C"/>
<path d="M91.5213 73.2857H94.1328V95H107.19V97.7143H94.1328V95H91.5213V73.2857Z" fill="#D6356C"/>
<path d="M104.579 76H96.7444V73.2857H104.579V76Z" fill="#D6356C"/>
<path d="M104.579 84.1429H99.3559V86.8571H104.579V84.1429Z" fill="#D6356C"/>
<path d="M115.025 97.7143H112.414V70.5714H115.025V97.7143Z" fill="#D6356C"/>
<path d="M117.637 86.8571V84.1429H125.471V86.8571H128.083V97.7143H125.471V86.8571H117.637Z" fill="#D6356C"/>
<path d="M146.363 95H141.14V97.7143H146.363V95Z" fill="#D6356C"/>
<path d="M141.14 73.2857H133.306V76H141.14V73.2857Z" fill="#D6356C"/>
<path d="M154.198 73.2857H146.363V76H154.198V73.2857Z" fill="#D6356C"/>
<path d="M156.81 70.5714H159.421V95H175.09V97.7143H159.421H156.81V70.5714Z" fill="#D6356C"/>
<path d="M162.033 73.2857V76H175.09V73.2857H162.033Z" fill="#D6356C"/>
<path d="M175.09 84.1429H162.033V86.8571H175.09V84.1429Z" fill="#D6356C"/>
<path d="M177.702 97.7143V70.5714H180.313V95H182.925V97.7143H177.702Z" fill="#D6356C"/>
<path d="M182.925 73.2857V76H195.983V73.2857H182.925Z" fill="#D6356C"/>
<path d="M182.925 89.5714V86.8571H188.148V89.5714H190.76V92.2857H193.371V95H201.206V97.7143H193.371V95H190.76V92.2857H188.148V89.5714H182.925Z" fill="#D6356C"/>
<path d="M203.817 95V89.5714H206.429V95H222.098V97.7143H206.429V95H203.817Z" fill="#D6356C"/>
<path d="M219.486 84.1429H206.429V86.8571H219.486V84.1429Z" fill="#D6356C"/>
<path d="M209.04 73.2857V76H222.098V73.2857H209.04Z" fill="#D6356C"/>
<path d="M60.1829 73.2857V70.5714H70.6291V76H68.0175V73.2857H60.1829Z" fill="#FFAAC7"/>
<path d="M60.1829 84.1429V81.4286H62.7945V84.1429H60.1829Z" fill="#FFAAC7"/>
<path d="M70.6291 81.4286H65.406V84.1429H70.6291V81.4286Z" fill="#FFAAC7"/>
<path d="M88.9098 70.5714H78.4636V73.2857H88.9098V70.5714Z" fill="#FFAAC7"/>
<path d="M83.6867 81.4286H81.0752V84.1429H83.6867V81.4286Z" fill="#FFAAC7"/>
<path d="M83.6867 92.2857H81.0752V95H83.6867V92.2857Z" fill="#FFAAC7"/>
<path d="M88.9098 92.2857H86.2982V95H88.9098V92.2857Z" fill="#FFAAC7"/>
<path d="M101.967 70.5714H107.19V73.2857H109.802V78.7143H107.19V73.2857H101.967V70.5714Z" fill="#FFAAC7"/>
<path d="M109.802 84.1429H107.19V89.5714H109.802V84.1429Z" fill="#FFAAC7"/>
<path d="M109.802 92.2857H107.19V95H109.802V92.2857Z" fill="#FFAAC7"/>
<path d="M117.637 70.5714H115.025V73.2857H117.637V70.5714Z" fill="#FFAAC7"/>
<path d="M117.637 76H115.025V78.7143H117.637V76Z" fill="#FFAAC7"/>
<path d="M125.471 70.5714V73.2857H130.694V70.5714H125.471Z" fill="#FFAAC7"/>
<path d="M130.694 76H128.083V78.7143H130.694V76Z" fill="#FFAAC7"/>
<path d="M141.14 70.5714H138.529V73.2857H141.14V70.5714Z" fill="#FFAAC7"/>
<path d="M154.198 70.5714H143.752V73.2857H154.198V70.5714Z" fill="#FFAAC7"/>
<path d="M146.363 78.7143H143.752V81.4286H146.363V78.7143Z" fill="#FFAAC7"/>
<path d="M175.09 70.5714H167.256V73.2857H175.09V70.5714Z" fill="#FFAAC7"/>
<path d="M167.256 84.1429V81.4286H169.867V84.1429H167.256Z" fill="#FFAAC7"/>
<path d="M172.479 84.1429V81.4286H175.09V84.1429H172.479Z" fill="#FFAAC7"/>
<path d="M175.09 92.2857H172.479V95H175.09V92.2857Z" fill="#FFAAC7"/>
<path d="M195.983 70.5714H185.536V73.2857H195.983V70.5714Z" fill="#FFAAC7"/>
<path d="M198.594 81.4286V76H201.206V81.4286H198.594Z" fill="#FFAAC7"/>
<path d="M209.04 73.2857V70.5714H211.652V73.2857H209.04Z" fill="#FFAAC7"/>
<path d="M222.098 70.5714H214.263V73.2857H222.098V70.5714Z" fill="#FFAAC7"/>
<path d="M224.709 84.1429H222.098V92.2857H224.709V84.1429Z" fill="#FFAAC7"/>
<path fill-rule="evenodd" clip-rule="evenodd" d="M57.5714 59.7143L57.5714 35.2857L54.9599 35.2857L54.9599 59.7143L57.5714 59.7143ZM47.1253 38L47.1253 40.7143L44.5138 40.7143L41.9022 40.7143L41.9022 38L44.5138 38L47.1253 38ZM47.1253 27.1429L49.7368 27.1429L49.7368 38L47.1253 38L47.1253 27.1429ZM47.1253 27.1429L47.1253 24.4286L34.0676 24.4286L34.0676 27.1429L47.1253 27.1429Z" fill="#FF5173"/>
<path fill-rule="evenodd" clip-rule="evenodd" d="M54.9598 59.7143L54.9598 38L52.3483 38L52.3483 40.7143L49.7368 40.7143L49.7368 43.4286L47.1252 43.4286L44.5137 43.4286L44.5137 57L47.1252 57L47.1252 59.7143L49.7368 59.7143L52.3483 59.7143L54.9598 59.7143ZM47.1252 29.8571L47.1252 27.1429L44.5137 27.1429L41.9022 27.1429L39.2906 27.1429L36.6791 27.1429L34.0676 27.1429L34.0676 29.8571L31.4561 29.8571L31.4561 32.5714L28.8445 32.5714L28.8445 35.2857L28.8445 38L28.8445 40.7143L28.8445 43.4286L28.8445 46.1429L31.4561 46.1429L31.4561 43.4286L31.4561 40.7143L34.0676 40.7143L34.0676 38L34.0676 35.2857L34.0676 32.5714L36.6791 32.5714L39.2906 32.5714L39.2906 35.2857L41.9022 35.2857L41.9022 38L44.5137 38L47.1252 38L47.1252 35.2857L47.1252 32.5714L47.1252 29.8571Z" fill="#E12449"/>
<path fill-rule="evenodd" clip-rule="evenodd" d="M47.1252 57L47.1252 59.7143L44.5137 59.7143L41.9022 59.7143L39.2906 59.7143L39.2906 40.7143L41.9022 40.7143L41.9022 43.4286L44.5137 43.4286L44.5137 57L47.1252 57ZM34.0676 40.7143L34.0676 59.7143L31.4561 59.7143L28.8445 59.7143L28.8445 46.1429L31.4561 46.1429L31.4561 40.7143L34.0676 40.7143ZM34.0676 40.7143L34.0676 38L36.6791 38L36.6791 40.7143L34.0676 40.7143Z" fill="#BB132E"/>
<path fill-rule="evenodd" clip-rule="evenodd" d="M54.9598 38L54.9598 29.8571L52.3483 29.8571L52.3483 38L49.7368 38L49.7368 40.7143L47.1252 40.7143L47.1252 43.4286L49.7368 43.4286L49.7368 40.7143L52.3483 40.7143L52.3483 38L54.9598 38ZM54.9598 59.7143L54.9598 62.4286L34.0676 62.4286L34.0676 59.7143L34.0676 40.7143L36.6791 40.7143L36.6791 59.7143L54.9598 59.7143ZM36.6791 40.7143L36.6791 38L34.0676 38L34.0676 35.2857L36.6791 35.2857L39.2906 35.2857L39.2906 38L39.2906 40.7143L36.6791 40.7143ZM49.7368 24.4286L49.7368 27.1429L47.1252 27.1429L47.1252 24.4286L49.7368 24.4286ZM47.1252 24.4286L34.0676 24.4286L34.0676 21.7143L47.1252 21.7143L47.1252 24.4286ZM28.8445 35.2857L28.8445 32.5714L31.4561 32.5714L31.4561 29.8571L34.0676 29.8571L34.0676 27.1429L31.4561 27.1429L31.4561 29.8571L28.8445 29.8571L28.8445 32.5714L26.233 32.5714L26.233 35.2857L26.233 38L26.233 40.7143L26.233 43.4286L26.233 46.1429L26.233 48.8571L26.233 51.5714L26.233 54.2857L26.233 57L26.233 59.7143L28.8445 59.7143L28.8445 57L28.8445 54.2857L28.8445 51.5714L28.8445 48.8571L28.8445 46.1429L28.8445 43.4286L28.8445 40.7143L28.8445 38L28.8445 35.2857Z" fill="#900C22"/>
<path fill-rule="evenodd" clip-rule="evenodd" d="M23.6215 35.2857L23.6215 32.5714L21.0099 32.5714L21.0099 35.2857L21.0099 38L23.6215 38L23.6215 35.2857ZM23.6215 40.7143L23.6215 43.4286L23.6215 46.1429L23.6215 48.8571L21.0099 48.8571L21.0099 46.1429L21.0099 43.4286L21.0099 40.7143L23.6215 40.7143ZM23.6215 54.2857L23.6215 51.5714L21.0099 51.5714L21.0099 54.2857L21.0099 57L23.6215 57L23.6215 54.2857Z" fill="#9E9E9E"/>
<path fill-rule="evenodd" clip-rule="evenodd" d="M21.0099 35.2857L21.0099 32.5714L18.3984 32.5714L18.3984 35.2857L21.0099 35.2857ZM21.0099 46.1429L21.0099 43.4286L18.3984 43.4286L18.3984 46.1429L21.0099 46.1429ZM21.0099 54.2857L21.0099 57L18.3984 57L18.3984 54.2857L21.0099 54.2857Z" fill="#BDBDBD"/>
<path fill-rule="evenodd" clip-rule="evenodd" d="M21.0099 38L21.0099 40.7143L18.3984 40.7143L18.3984 43.4286L15.7869 43.4286L15.7869 40.7143L15.7869 38L15.7869 35.2857L18.3984 35.2857L18.3984 38L21.0099 38ZM21.0099 48.8571L21.0099 51.5714L18.3984 51.5714L18.3984 54.2857L15.7869 54.2857L15.7869 51.5714L15.7869 48.8571L15.7869 46.1429L18.3984 46.1429L18.3984 48.8571L21.0099 48.8571Z" fill="#E0E0E0"/>
<path fill-rule="evenodd" clip-rule="evenodd" d="M23.6215 40.7143L23.6215 38L21.0099 38L21.0099 35.2857L18.3984 35.2857L18.3984 32.5714L15.7869 32.5714L15.7869 35.2857L18.3984 35.2857L18.3984 38L21.0099 38L21.0099 40.7143L18.3984 40.7143L18.3984 43.4286L15.7869 43.4286L15.7869 46.1429L18.3984 46.1429L18.3984 48.8571L21.0099 48.8571L21.0099 51.5714L18.3984 51.5714L18.3984 54.2857L15.7869 54.2857L15.7869 57L18.3984 57L18.3984 54.2857L21.0099 54.2857L21.0099 51.5714L23.6215 51.5714L23.6215 48.8571L21.0099 48.8571L21.0099 46.1429L18.3984 46.1429L18.3984 43.4286L21.0099 43.4286L21.0099 40.7143L23.6215 40.7143Z" fill="#757575"/>
<path fill-rule="evenodd" clip-rule="evenodd" d="M60.1829 59.7143L60.1829 35.2857L57.5714 35.2857L57.5714 29.8571L54.9599 29.8571L54.9599 27.1429L52.3483 27.1429L49.7368 27.1429L49.7368 24.4286L47.1253 24.4286L47.1253 21.7143L34.0676 21.7143L34.0676 24.4286L31.4561 24.4286L31.4561 27.1429L28.8445 27.1429L28.8445 29.8571L26.233 29.8571L23.6215 29.8571L21.0099 29.8571L18.3984 29.8571L15.7869 29.8571L15.7869 32.5714L13.1753 32.5714L13.1753 35.2857L13.1753 38L13.1753 40.7143L13.1753 43.4286L13.1753 46.1429L13.1753 48.8571L13.1753 51.5714L13.1753 54.2857L13.1753 57L15.7869 57L15.7869 59.7143L18.3984 59.7143L21.0099 59.7143L23.6215 59.7143L26.233 59.7143L26.233 62.4286L34.0676 62.4286L34.0676 65.1429L54.9599 65.1429L54.9599 62.4286L57.5714 62.4286L57.5714 59.7143L60.1829 59.7143ZM57.5714 59.7143L54.9599 59.7143L54.9599 62.4286L34.0676 62.4286L34.0676 59.7143L26.233 59.7143L26.233 57L26.233 54.2857L26.233 51.5714L26.233 48.8571L26.233 46.1429L26.233 43.4286L26.233 40.7143L26.233 38L26.233 35.2857L26.233 32.5714L28.8445 32.5714L28.8445 29.8571L31.4561 29.8571L31.4561 27.1429L34.0676 27.1429L34.0676 24.4286L47.1253 24.4286L47.1253 27.1429L49.7368 27.1429L49.7368 29.8571L49.7368 38L47.1253 38L47.1253 40.7143L44.5137 40.7143L41.9022 40.7143L41.9022 38L41.9022 35.2857L39.2907 35.2857L39.2907 32.5714L36.6791 32.5714L34.0676 32.5714L34.0676 35.2857L36.6791 35.2857L39.2907 35.2857L39.2907 38L39.2907 40.7143L36.6791 40.7143L36.6791 59.7143L39.2907 59.7143L39.2907 40.7143L41.9022 40.7143L41.9022 43.4286L44.5137 43.4286L47.1253 43.4286L47.1253 40.7143L49.7368 40.7143L49.7368 38L52.3483 38L52.3483 29.8571L54.9599 29.8571L54.9599 35.2857L57.5714 35.2857L57.5714 59.7143ZM23.6215 32.5714L21.0099 32.5714L18.3984 32.5714L15.7869 32.5714L15.7869 35.2857L15.7869 38L15.7869 40.7143L15.7869 43.4286L15.7869 46.1429L15.7869 48.8571L15.7869 51.5714L15.7869 54.2857L15.7869 57L18.3984 57L21.0099 57L23.6215 57L23.6215 54.2857L23.6215 51.5714L23.6215 48.8571L23.6215 46.1429L23.6215 43.4286L23.6215 40.7143L23.6215 38L23.6215 35.2857L23.6215 32.5714Z" fill="black"/>
<path fill-rule="evenodd" clip-rule="evenodd" d="M219.486 59.7143L219.486 35.2857L222.098 35.2857L222.098 59.7143L219.486 59.7143ZM229.932 38L229.932 40.7143L232.544 40.7143L235.156 40.7143L235.156 38L232.544 38L229.932 38ZM229.932 27.1429L227.321 27.1429L227.321 38L229.932 38L229.932 27.1429ZM229.932 27.1429L229.932 24.4286L242.99 24.4286L242.99 27.1429L229.932 27.1429Z" fill="#FF5173"/>
<path fill-rule="evenodd" clip-rule="evenodd" d="M222.098 59.7143L222.098 38L224.709 38L224.709 40.7143L227.321 40.7143L227.321 43.4286L229.932 43.4286L232.544 43.4286L232.544 57L229.932 57L229.932 59.7143L227.321 59.7143L224.709 59.7143L222.098 59.7143ZM229.932 29.8571L229.932 27.1429L232.544 27.1429L235.156 27.1429L237.767 27.1429L240.379 27.1429L242.99 27.1429L242.99 29.8571L245.602 29.8571L245.602 32.5714L248.213 32.5714L248.213 35.2857L248.213 38L248.213 40.7143L248.213 43.4286L248.213 46.1429L245.602 46.1429L245.602 43.4286L245.602 40.7143L242.99 40.7143L242.99 38L242.99 35.2857L242.99 32.5714L240.379 32.5714L237.767 32.5714L237.767 35.2857L235.156 35.2857L235.156 38L232.544 38L229.932 38L229.932 35.2857L229.932 32.5714L229.932 29.8571Z" fill="#E12449"/>
<path fill-rule="evenodd" clip-rule="evenodd" d="M229.932 57L229.932 59.7143L232.544 59.7143L235.156 59.7143L237.767 59.7143L237.767 40.7143L235.156 40.7143L235.156 43.4286L232.544 43.4286L232.544 57L229.932 57ZM242.99 40.7143L242.99 59.7143L245.602 59.7143L248.213 59.7143L248.213 46.1429L245.602 46.1429L245.602 40.7143L242.99 40.7143ZM242.99 40.7143L242.99 38L240.379 38L240.379 40.7143L242.99 40.7143Z" fill="#BB132E"/>
<path fill-rule="evenodd" clip-rule="evenodd" d="M222.098 38L222.098 29.8571L224.709 29.8571L224.709 38L227.321 38L227.321 40.7143L229.932 40.7143L229.932 43.4286L227.321 43.4286L227.321 40.7143L224.709 40.7143L224.709 38L222.098 38ZM222.098 59.7143L222.098 62.4286L242.99 62.4286L242.99 59.7143L242.99 40.7143L240.379 40.7143L240.379 59.7143L222.098 59.7143ZM240.379 40.7143L240.379 38L242.99 38L242.99 35.2857L240.379 35.2857L237.767 35.2857L237.767 38L237.767 40.7143L240.379 40.7143ZM227.321 24.4286L227.321 27.1429L229.932 27.1429L229.932 24.4286L227.321 24.4286ZM229.932 24.4286L242.99 24.4286L242.99 21.7143L229.932 21.7143L229.932 24.4286ZM248.213 35.2857L248.213 32.5714L245.602 32.5714L245.602 29.8571L242.99 29.8571L242.99 27.1429L245.602 27.1429L245.602 29.8571L248.213 29.8571L248.213 32.5714L250.825 32.5714L250.825 35.2857L250.825 38L250.825 40.7143L250.825 43.4286L250.825 46.1429L250.825 48.8571L250.825 51.5714L250.825 54.2857L250.825 57L250.825 59.7143L248.213 59.7143L248.213 57L248.213 54.2857L248.213 51.5714L248.213 48.8571L248.213 46.1429L248.213 43.4286L248.213 40.7143L248.213 38L248.213 35.2857Z" fill="#900C22"/>
<path fill-rule="evenodd" clip-rule="evenodd" d="M253.436 35.2857L253.436 32.5714L256.048 32.5714L256.048 35.2857L256.048 38L253.436 38L253.436 35.2857ZM253.436 40.7143L253.436 43.4286L253.436 46.1429L253.436 48.8571L256.048 48.8571L256.048 46.1429L256.048 43.4286L256.048 40.7143L253.436 40.7143ZM253.436 54.2857L253.436 51.5714L256.048 51.5714L256.048 54.2857L256.048 57L253.436 57L253.436 54.2857Z" fill="#9E9E9E"/>
<path fill-rule="evenodd" clip-rule="evenodd" d="M256.048 35.2857L256.048 32.5714L258.659 32.5714L258.659 35.2857L256.048 35.2857ZM256.048 46.1429L256.048 43.4286L258.659 43.4286L258.659 46.1429L256.048 46.1429ZM256.048 54.2857L256.048 57L258.659 57L258.659 54.2857L256.048 54.2857Z" fill="#BDBDBD"/>
<path fill-rule="evenodd" clip-rule="evenodd" d="M256.048 38L256.048 40.7143L258.659 40.7143L258.659 43.4286L261.271 43.4286L261.271 40.7143L261.271 38L261.271 35.2857L258.659 35.2857L258.659 38L256.048 38ZM256.048 48.8571L256.048 51.5714L258.659 51.5714L258.659 54.2857L261.271 54.2857L261.271 51.5714L261.271 48.8571L261.271 46.1429L258.659 46.1429L258.659 48.8571L256.048 48.8571Z" fill="#E0E0E0"/>
<path fill-rule="evenodd" clip-rule="evenodd" d="M253.436 40.7143L253.436 38L256.048 38L256.048 35.2857L258.659 35.2857L258.659 32.5714L261.271 32.5714L261.271 35.2857L258.659 35.2857L258.659 38L256.048 38L256.048 40.7143L258.659 40.7143L258.659 43.4286L261.271 43.4286L261.271 46.1429L258.659 46.1429L258.659 48.8571L256.048 48.8571L256.048 51.5714L258.659 51.5714L258.659 54.2857L261.271 54.2857L261.271 57L258.659 57L258.659 54.2857L256.048 54.2857L256.048 51.5714L253.436 51.5714L253.436 48.8571L256.048 48.8571L256.048 46.1429L258.659 46.1429L258.659 43.4286L256.048 43.4286L256.048 40.7143L253.436 40.7143Z" fill="#757575"/>
<path fill-rule="evenodd" clip-rule="evenodd" d="M216.875 59.7143L216.875 35.2857L219.486 35.2857L219.486 29.8571L222.098 29.8571L222.098 27.1429L224.709 27.1429L227.321 27.1429L227.321 24.4286L229.932 24.4286L229.932 21.7143L242.99 21.7143L242.99 24.4286L245.602 24.4286L245.602 27.1429L248.213 27.1429L248.213 29.8571L250.825 29.8571L253.436 29.8571L256.048 29.8571L258.659 29.8571L261.271 29.8571L261.271 32.5714L263.882 32.5714L263.882 35.2857L263.882 38L263.882 40.7143L263.882 43.4286L263.882 46.1429L263.882 48.8571L263.882 51.5714L263.882 54.2857L263.882 57L261.271 57L261.271 59.7143L258.659 59.7143L256.048 59.7143L253.436 59.7143L250.825 59.7143L250.825 62.4286L242.99 62.4286L242.99 65.1429L222.098 65.1429L222.098 62.4286L219.486 62.4286L219.486 59.7143L216.875 59.7143ZM219.486 59.7143L222.098 59.7143L222.098 62.4286L242.99 62.4286L242.99 59.7143L250.825 59.7143L250.825 57L250.825 54.2857L250.825 51.5714L250.825 48.8571L250.825 46.1429L250.825 43.4286L250.825 40.7143L250.825 38L250.825 35.2857L250.825 32.5714L248.213 32.5714L248.213 29.8571L245.602 29.8571L245.602 27.1429L242.99 27.1429L242.99 24.4286L229.932 24.4286L229.932 27.1429L227.321 27.1429L227.321 29.8571L227.321 38L229.932 38L229.932 40.7143L232.544 40.7143L235.156 40.7143L235.156 38L235.156 35.2857L237.767 35.2857L237.767 32.5714L240.379 32.5714L242.99 32.5714L242.99 35.2857L240.379 35.2857L237.767 35.2857L237.767 38L237.767 40.7143L240.379 40.7143L240.379 59.7143L237.767 59.7143L237.767 40.7143L235.156 40.7143L235.156 43.4286L232.544 43.4286L229.932 43.4286L229.932 40.7143L227.321 40.7143L227.321 38L224.709 38L224.709 29.8571L222.098 29.8571L222.098 35.2857L219.486 35.2857L219.486 59.7143ZM253.436 32.5714L256.048 32.5714L258.659 32.5714L261.271 32.5714L261.271 35.2857L261.271 38L261.271 40.7143L261.271 43.4286L261.271 46.1429L261.271 48.8571L261.271 51.5714L261.271 54.2857L261.271 57L258.659 57L256.048 57L253.436 57L253.436 54.2857L253.436 51.5714L253.436 48.8571L253.436 46.1429L253.436 43.4286L253.436 40.7143L253.436 38L253.436 35.2857L253.436 32.5714Z" fill="black"/>
</svg>
