<svg width="56" height="56" viewBox="0 0 56 56" fill="none" xmlns="http://www.w3.org/2000/svg">
<rect width="56" height="56" rx="16" fill="#FFF6E8"/>
<g clip-path="url(#clip0_1346_4794)">
<path d="M28 44.0031C36.8366 44.0031 44 36.8397 44 28.0031C44 19.1666 36.8366 12.0031 28 12.0031C19.1634 12.0031 12 19.1666 12 28.0031C12 36.8397 19.1634 44.0031 28 44.0031Z" fill="#26A17B"/>
<path fill-rule="evenodd" clip-rule="evenodd" d="M29.9228 29.3828V29.3808C29.8128 29.3888 29.2458 29.4228 27.9808 29.4228C26.9708 29.4228 26.2598 29.3928 26.0098 29.3808V29.3838C22.1218 29.2128 19.2198 28.5358 19.2198 27.7258C19.2198 26.9168 22.1218 26.2398 26.0098 26.0658V28.7098C26.2638 28.7278 26.9918 28.7708 27.9978 28.7708C29.2048 28.7708 29.8098 28.7208 29.9228 28.7108V26.0678C33.8028 26.2408 36.6978 26.9178 36.6978 27.7258C36.6978 28.5358 33.8028 29.2108 29.9228 29.3828ZM29.9228 25.7928V23.4268H35.3368V19.8188H20.5958V23.4268H26.0098V25.7918C21.6098 25.9938 18.3008 26.8658 18.3008 27.9098C18.3008 28.9538 21.6098 29.8248 26.0098 30.0278V37.6098H29.9228V30.0258C34.3158 29.8238 37.6168 28.9528 37.6168 27.9098C37.6168 26.8668 34.3158 25.9958 29.9228 25.7928Z" fill="white"/>
</g>
<rect x="33.5" y="33.5" width="13" height="13" rx="6.5" stroke="white"/>
<g clip-path="url(#clip1_1346_4794)">
<path d="M40 46.0012C43.3137 46.0012 46 43.3149 46 40.0012C46 36.6875 43.3137 34.0012 40 34.0012C36.6863 34.0012 34 36.6875 34 40.0012C34 43.3149 36.6863 46.0012 40 46.0012Z" fill="#627EEA"/>
<path d="M40.043 35.9283V38.8856L42.4425 40.0025L40.043 35.9283Z" fill="white" fill-opacity="0.602"/>
<path d="M40.0424 35.9283L37.6426 40.0025L40.0424 38.8856V35.9283Z" fill="white"/>
<path d="M40.043 41.9185V43.928L42.4441 40.4676L40.043 41.9185Z" fill="white" fill-opacity="0.602"/>
<path d="M40.0424 43.928V41.9182L37.6426 40.4676L40.0424 43.928Z" fill="white"/>
<path d="M40.043 41.4542L42.4425 40.0029L40.043 38.8867V41.4542Z" fill="white" fill-opacity="0.2"/>
<path d="M37.6426 40.0029L40.0424 41.4542V38.8867L37.6426 40.0029Z" fill="white" fill-opacity="0.602"/>
</g>
<defs>
<clipPath id="clip0_1346_4794">
<rect width="32" height="32" fill="white" transform="translate(12 12)"/>
</clipPath>
<clipPath id="clip1_1346_4794">
<rect width="12" height="12" fill="white" transform="translate(34 34)"/>
</clipPath>
</defs>
</svg>
